<?xml version='1.0' encoding='UTF-8' standalone='no'?>
<!-- Created with Fritzing (http://www.fritzing.org/) -->
<svg xmlns:svg='http://www.w3.org/2000/svg' xmlns='http://www.w3.org/2000/svg' version='1.2' baseProfile='tiny' x='0in' y='0in' width='1.772in' height='1.70109in' viewBox='0 0 127.584 122.478' >
<g partID='88800'><g transform='translate(83.412,0)' ><g xmlns="http://www.w3.org/2000/svg" id="breadboard">
 <g xmlns="http://www.w3.org/2000/svg" id="icon">
  <path xmlns="http://www.w3.org/2000/svg" id="path16" fill="#8C8C8C" d="M6.963,18.013c0,0,0,3.993,0,5.186c0,1.193,-1.271,2.303,-2.39,3.429c-1.462,1.472,-1.061,2.992,-1.061,4.732l0,1.188l0,0l2.16,0l0,0l0,-1.022c0,-1.096,-0.666,-2.271,0.433,-3.373c1.483,-1.492,3.019,-3.038,3.019,-4.82l0,-5.313L6.963,18.013L6.963,18.013z"/>
  <line xmlns="http://www.w3.org/2000/svg" stroke-linecap="round" y2="53.508" x1="11.81" x2="11.81" fill="none" stroke-width="2.16" y1="18.357" stroke="#8C8C8C"/>
  <path xmlns="http://www.w3.org/2000/svg" id="path20" fill="#8C8C8C" d="M19.187,26.625c-1.121,-1.127,-2.392,-2.235,-2.392,-3.429c0,-1.192,0,-5.186,0,-5.186l-2.16,0l0,5.313c0,1.784,1.535,3.329,3.019,4.822c1.103,1.104,0.238,2.273,0.238,3.373l0,1.021l0,0l2.16,0l0,0l0,-1.186C20.052,29.618,20.647,28.098,19.187,26.625z"/>
  <polygon xmlns="http://www.w3.org/2000/svg" points="15.692,8.638,16.133,9.154,12.981,12.519,15.978,12.519,15.978,13.269,15.978,16.325,16.903,16.325,16.903,8.638" id="polygon30" fill="#999999"/>
  <polygon xmlns="http://www.w3.org/2000/svg" points="12.729,8.921,12.223,9.796,10.278,9.796,9.772,8.921,8.22,8.921,6.999,9.777,6.999,16.325,8.865,16.323,8.865,12.519,11.563,12.519,14.916,8.921" id="polygon32" fill="#999999"/>
  <line xmlns="http://www.w3.org/2000/svg" stroke-linecap="round" y2="53.551" x1="4.592" x2="4.592" fill="none" stroke-width="2.16" y1="32.551" stroke="#8C8C8C"/>
  <line xmlns="http://www.w3.org/2000/svg" stroke-linecap="round" y2="53.551" x1="18.972" x2="18.972" fill="none" stroke-width="2.16" y1="32.551" stroke="#8C8C8C"/>
 </g>
 <g xmlns="http://www.w3.org/2000/svg">
  <rect xmlns="http://www.w3.org/2000/svg" width="2.296" y="31.353" height="2.08" id="connector1pin" x="10.646" fill="none"/>
  <rect xmlns="http://www.w3.org/2000/svg" width="2.16" y="31.572" height="1.813" id="connector4pin" x="17.892" fill="none"/>
  <rect xmlns="http://www.w3.org/2000/svg" width="2.16" y="31.471" height="2.07" id="connector0pin" x="3.512" fill="none"/>
 </g>
 <g xmlns="http://www.w3.org/2000/svg">
  <path xmlns="http://www.w3.org/2000/svg" opacity="0.5" fill="#E6E6E6" enable-background="new    " d="M19.133,13.177L19.133,7.185C19.133,3.217,15.916,0,11.948,0C7.982,0,4.765,3.217,4.765,7.185l0,13.834c1.5,1.674,4.153,2.789,7.184,2.789c4.687,0,8.479,-2.658,8.479,-5.938l0,-1.547C20.433,15.167,19.95,14.089,19.133,13.177z"/>
  <path xmlns="http://www.w3.org/2000/svg" opacity="0.9" fill="#D1D1D1" enable-background="new    " d="M19.133,13.177l0,3.146c0,2.777,-3.217,5.029,-7.185,5.029c-3.966,0,-7.184,-2.252,-7.184,-5.029l0,3.148l0,1.547c1.5,1.672,4.153,2.789,7.184,2.789c4.687,0,8.481,-2.658,8.481,-5.938l0,-1.546C20.433,15.167,19.95,14.089,19.133,13.177z"/>
  <path xmlns="http://www.w3.org/2000/svg" opacity="0.24" enable-background="new    " d="M19.133,13.177l0,3.146c0,2.777,-3.217,5.029,-7.185,5.029c-3.966,0,-7.184,-2.252,-7.184,-5.029l0,3.148c1.5,1.674,4.153,2.789,7.184,2.789c4.687,0,8.481,-2.658,8.481,-5.938C20.433,15.167,19.95,14.089,19.133,13.177z"/>
  <ellipse xmlns="http://www.w3.org/2000/svg" opacity="0.5" cy="16.323" ry="5.029" fill="#CCCCCC" enable-background="new    " cx="11.95" rx="7.183"/>
  <polygon xmlns="http://www.w3.org/2000/svg" points="15.692,8.638,16.133,9.154,12.981,12.519,15.978,12.519,15.978,13.269,15.978,16.325,16.903,16.325,16.903,8.638" fill="#999999"/>
  <polygon xmlns="http://www.w3.org/2000/svg" points="12.729,8.921,12.223,9.796,10.278,9.796,9.772,8.921,8.22,8.921,6.999,9.777,6.999,16.325,8.865,16.323,8.865,12.519,11.563,12.519,14.916,8.921" fill="#999999"/>
  <path xmlns="http://www.w3.org/2000/svg" opacity="0.6" fill="#FFFFFF" enable-background="new    " d="M15.295,3.802l1.459,-0.277c-0.849,-1.149,-2.108,-1.986,-3.588,-2.271l0.252,1.098C14.194,2.625,14.847,3.142,15.295,3.802z"/>
  <path xmlns="http://www.w3.org/2000/svg" opacity="0.6" fill="#FFFFFF" enable-background="new    " d="M15.987,20.482c-0.264,0.125,-0.537,0.232,-0.821,0.334c-0.06,0.021,-0.119,0.041,-0.181,0.062c-0.569,0.188,-1.185,0.321,-1.821,0.397c-0.076,0.011,-0.154,0.019,-0.229,0.025c-0.322,0.029,-0.647,0.053,-0.983,0.053c-0.148,0,-0.312,-0.01,-0.478,-0.024c-1.223,-0.058,-2.362,-0.316,-3.344,-0.75l0,-8.507L8.13,7.185c0,-1.49,0.86,-2.767,2.104,-3.396l-0.021,-0.051L8.946,2.203C7.257,3.224,6.115,5.066,6.115,7.183L6.115,19.25c-0.049,-0.049,-0.313,-0.312,-0.485,-0.533l-0.312,0.698c1.426,1.503,3.861,2.497,6.632,2.497c1.703,0,3.277,-0.379,4.572,-1.019l-0.531,-0.412C15.987,20.482,15.987,20.482,15.987,20.482z"/>
 </g>
</g>
</g></g><path stroke='#8c8c8c' stroke-width='2.0952' stroke-linecap='round' stroke-linejoin='round' fill='none' d='M102.384,33.5261L102.384,32.4785' />
<path stroke='#8c8c8c' stroke-width='2.0952' stroke-linecap='round' stroke-linejoin='round' fill='none' d='M102.384,60.2359L102.384,61.2835' />
<g partID='90580'><g transform='translate(106.016,31.4309)' ><g transform='matrix(2.22045e-16,1,-1,2.22045e-16,0,0)'  ><g xmlns="http://www.w3.org/2000/svg" id="breadboard">
 <rect xmlns="http://www.w3.org/2000/svg" width="0.72" y="2.5848" height="0.72" id="connector0pin" x="0.36" fill="none"/>
 <rect xmlns="http://www.w3.org/2000/svg" width="0.72" y="2.5848" height="0.72" id="connector1pin" x="29.8202" fill="none"/>
 <line xmlns="http://www.w3.org/2000/svg" stroke-linecap="round" y2="3.6324" x1="1.0476" x2="2.0952" id="connector0leg" fill="none" y1="3.6324" stroke-width="2.0952" stroke="#8C8C8C"/>
 <line xmlns="http://www.w3.org/2000/svg" stroke-linecap="round" y2="3.6324" x1="29.8526" x2="28.805" id="connector1leg" fill="none" y1="3.6324" stroke-width="2.0952" stroke="#8C8C8C"/>
 <path xmlns="http://www.w3.org/2000/svg" fill="none" d="M1.0476,3.6324l28.3666,0" stroke-width="2.0952" stroke="#8C8C8C"/>
 <path xmlns="http://www.w3.org/2000/svg" id="body" fill="#D9B477" d="M10.2478,0.49536c-0.36,-0.1656,-0.9792,-0.2952,-1.3752,-0.2952l-1.9872,0c-0.396,0,-0.72,0.324,-0.72,0.72l0,5.35608c0,0.39672,0.324,0.72,0.72,0.72l1.9872,0c0.396,0,1.0152,-0.13608,1.3752,-0.2952l0.072,-0.03528c0.36,-0.1656,0.9792,-0.2952,1.3752,-0.2952l7.1856,0c0.39672,0,1.01448,0.13608,1.37448,0.2952l0.07272,0.03528c0.36,0.1656,0.97776,0.2952,1.3752,0.2952l1.9872,0c0.39744,0,0.72,-0.32328,0.72,-0.72L24.4102,0.92016c0,-0.396,-0.32256,-0.72,-0.72,-0.72l-1.9872,0c-0.39744,0,-1.0152,0.1368,-1.3752,0.2952l-0.07272,0.036c-0.36,0.1656,-0.97776,0.2952,-1.37448,0.2952l-7.1856,0c-0.396,0,-1.0152,-0.1368,-1.3752,-0.2952L10.2478,0.49536z"/>
 <rect xmlns="http://www.w3.org/2000/svg" width="0.70272" y="0.19368" height="6.79536" id="gold_band" x="22.019" fill="#ad9f4e"/>
 <rect xmlns="http://www.w3.org/2000/svg" width="1.8504" y="0.82656" height="5.5368" id="band_rd_multiplier" fill="#8a3d06" x="16.1726"/>
 <rect xmlns="http://www.w3.org/2000/svg" width="1.8504" y="0.82656" height="5.5368" id="band_2_nd" fill="#000000" x="12.4726"/>
 <path xmlns="http://www.w3.org/2000/svg" id="band_1_st" fill="#8a3d06" d="M10.6286,0.63936c-0.1152,-0.036,-0.2232,-0.072,-0.3096,-0.1152l-0.072,-0.036c-0.36,-0.16488,-0.9792,-0.2952,-1.3752,-0.2952l-0.0864,0l0,6.79608l0.0864,0c0.396,0,1.0152,-0.13608,1.3752,-0.2952l0.072,-0.03528c0.0864,-0.04464,0.1944,-0.07992,0.3096,-0.1152L10.6286,0.63936z"/>
 <path xmlns="http://www.w3.org/2000/svg" opacity="0.3" id="Shadow" d="M23.711,4.0896L23.711,4.0896c0,0.37944,-0.13032,0.69912,-0.2952,0.69912l-1.9224,0c-0.38016,0,-0.97776,-0.05616,-1.33272,-0.1224L20.088,4.65048c-0.34488,-0.0648,-0.94896,-0.1224,-1.33344,-0.1224L11.808,4.52808c-0.3816,0,-0.9792,0.0576,-1.332,0.1224l-0.072,0.01512c-0.3456,0.06552,-0.9432,0.1224,-1.332,0.1224l-0.3168,0l-1.0008,0l-0.3096,0c-0.3816,0,-0.6984,0.29376,-0.6984,0.64512l0,0.24696L6.7464,5.8392l0,0.1728c0,0.36,0.3168,0.64512,0.6984,0.64512l1.62,0c0.3816,0,0.9792,-0.1224,1.332,-0.26712l0.072,-0.02808c0.3456,-0.14112,0.9504,-0.26496,1.332,-0.26496l6.94656,0c0.37944,0,0.97704,0.12384,1.33416,0.26568l0.07416,0.02808c0.34488,0.14472,0.94464,0.26712,1.33344,0.26712l2.2248,0c0.38088,0,0.69912,-0.2952,0.69912,-0.64512L24.413,5.472L24.413,4.49928L24.413,2.65536C24.1358,2.76336,23.711,3.06576,23.711,4.0896z"/>
 <rect xmlns="http://www.w3.org/2000/svg" opacity="0.4" width="0.70272" y="3.48336" height="3.15288" id="ShadowExtra" x="22.019"/>
 <path xmlns="http://www.w3.org/2000/svg" opacity="0.25" id="ReflexRight" fill="#FFFFFF" d="M19.751,1.08576c0.22968,0,0.49104,-0.1008,0.6624,-0.1728c0.2016,-0.0792,0.57672,-0.144,0.96624,-0.144l1.46088,0c0.22464,0,0.22464,0.2448,0.22464,0.3744c0,0.1296,-0.01512,0.3816,-0.22464,0.3816l-3.06,0c-0.10728,0,-0.2304,-0.1152,-0.2304,-0.22392C19.5566,1.21536,19.6286,1.08576,19.751,1.08576z"/>
 <circle xmlns="http://www.w3.org/2000/svg" opacity="0.35" cy="1.13616" id="ReflexLeft" fill="#FFFFFF" r="0.432" cx="6.99984"/>
 <rect xmlns="http://www.w3.org/2000/svg" opacity="0.5" width="0.70272" y="0.42336" height="1.62" id="Reflex_gold" x="22.019" fill="#FFFF33"/>
 <rect xmlns="http://www.w3.org/2000/svg" opacity="0.5" width="0.70272" y="0.78336" height="0.7488" id="Reflex_extra" x="22.019" fill="#FFFFFF"/>
</g>
</g></g></g><path stroke='#8c8c8c' stroke-width='2.0952' stroke-linecap='round' stroke-linejoin='round' fill='none' d='M87.984,33.5261L87.984,32.4785' />
<path stroke='#8c8c8c' stroke-width='2.0952' stroke-linecap='round' stroke-linejoin='round' fill='none' d='M87.984,60.2359L87.984,61.2835' />
<g partID='90680'><g transform='translate(91.6164,31.4309)' ><g transform='matrix(2.22045e-16,1,-1,2.22045e-16,0,0)'  ><g xmlns="http://www.w3.org/2000/svg" id="breadboard">
 <rect xmlns="http://www.w3.org/2000/svg" width="0.72" y="2.5848" height="0.72" id="connector0pin" x="0.36" fill="none"/>
 <rect xmlns="http://www.w3.org/2000/svg" width="0.72" y="2.5848" height="0.72" id="connector1pin" x="29.8202" fill="none"/>
 <line xmlns="http://www.w3.org/2000/svg" stroke-linecap="round" y2="3.6324" x1="1.0476" x2="2.0952" id="connector0leg" fill="none" y1="3.6324" stroke-width="2.0952" stroke="#8C8C8C"/>
 <line xmlns="http://www.w3.org/2000/svg" stroke-linecap="round" y2="3.6324" x1="29.8526" x2="28.805" id="connector1leg" fill="none" y1="3.6324" stroke-width="2.0952" stroke="#8C8C8C"/>
 <path xmlns="http://www.w3.org/2000/svg" fill="none" d="M1.0476,3.6324l28.3666,0" stroke-width="2.0952" stroke="#8C8C8C"/>
 <path xmlns="http://www.w3.org/2000/svg" id="body" fill="#D9B477" d="M10.2478,0.49536c-0.36,-0.1656,-0.9792,-0.2952,-1.3752,-0.2952l-1.9872,0c-0.396,0,-0.72,0.324,-0.72,0.72l0,5.35608c0,0.39672,0.324,0.72,0.72,0.72l1.9872,0c0.396,0,1.0152,-0.13608,1.3752,-0.2952l0.072,-0.03528c0.36,-0.1656,0.9792,-0.2952,1.3752,-0.2952l7.1856,0c0.39672,0,1.01448,0.13608,1.37448,0.2952l0.07272,0.03528c0.36,0.1656,0.97776,0.2952,1.3752,0.2952l1.9872,0c0.39744,0,0.72,-0.32328,0.72,-0.72L24.4102,0.92016c0,-0.396,-0.32256,-0.72,-0.72,-0.72l-1.9872,0c-0.39744,0,-1.0152,0.1368,-1.3752,0.2952l-0.07272,0.036c-0.36,0.1656,-0.97776,0.2952,-1.37448,0.2952l-7.1856,0c-0.396,0,-1.0152,-0.1368,-1.3752,-0.2952L10.2478,0.49536z"/>
 <rect xmlns="http://www.w3.org/2000/svg" width="0.70272" y="0.19368" height="6.79536" id="gold_band" x="22.019" fill="#ad9f4e"/>
 <rect xmlns="http://www.w3.org/2000/svg" width="1.8504" y="0.82656" height="5.5368" id="band_rd_multiplier" fill="#8a3d06" x="16.1726"/>
 <rect xmlns="http://www.w3.org/2000/svg" width="1.8504" y="0.82656" height="5.5368" id="band_2_nd" fill="#000000" x="12.4726"/>
 <path xmlns="http://www.w3.org/2000/svg" id="band_1_st" fill="#8a3d06" d="M10.6286,0.63936c-0.1152,-0.036,-0.2232,-0.072,-0.3096,-0.1152l-0.072,-0.036c-0.36,-0.16488,-0.9792,-0.2952,-1.3752,-0.2952l-0.0864,0l0,6.79608l0.0864,0c0.396,0,1.0152,-0.13608,1.3752,-0.2952l0.072,-0.03528c0.0864,-0.04464,0.1944,-0.07992,0.3096,-0.1152L10.6286,0.63936z"/>
 <path xmlns="http://www.w3.org/2000/svg" opacity="0.3" id="Shadow" d="M23.711,4.0896L23.711,4.0896c0,0.37944,-0.13032,0.69912,-0.2952,0.69912l-1.9224,0c-0.38016,0,-0.97776,-0.05616,-1.33272,-0.1224L20.088,4.65048c-0.34488,-0.0648,-0.94896,-0.1224,-1.33344,-0.1224L11.808,4.52808c-0.3816,0,-0.9792,0.0576,-1.332,0.1224l-0.072,0.01512c-0.3456,0.06552,-0.9432,0.1224,-1.332,0.1224l-0.3168,0l-1.0008,0l-0.3096,0c-0.3816,0,-0.6984,0.29376,-0.6984,0.64512l0,0.24696L6.7464,5.8392l0,0.1728c0,0.36,0.3168,0.64512,0.6984,0.64512l1.62,0c0.3816,0,0.9792,-0.1224,1.332,-0.26712l0.072,-0.02808c0.3456,-0.14112,0.9504,-0.26496,1.332,-0.26496l6.94656,0c0.37944,0,0.97704,0.12384,1.33416,0.26568l0.07416,0.02808c0.34488,0.14472,0.94464,0.26712,1.33344,0.26712l2.2248,0c0.38088,0,0.69912,-0.2952,0.69912,-0.64512L24.413,5.472L24.413,4.49928L24.413,2.65536C24.1358,2.76336,23.711,3.06576,23.711,4.0896z"/>
 <rect xmlns="http://www.w3.org/2000/svg" opacity="0.4" width="0.70272" y="3.48336" height="3.15288" id="ShadowExtra" x="22.019"/>
 <path xmlns="http://www.w3.org/2000/svg" opacity="0.25" id="ReflexRight" fill="#FFFFFF" d="M19.751,1.08576c0.22968,0,0.49104,-0.1008,0.6624,-0.1728c0.2016,-0.0792,0.57672,-0.144,0.96624,-0.144l1.46088,0c0.22464,0,0.22464,0.2448,0.22464,0.3744c0,0.1296,-0.01512,0.3816,-0.22464,0.3816l-3.06,0c-0.10728,0,-0.2304,-0.1152,-0.2304,-0.22392C19.5566,1.21536,19.6286,1.08576,19.751,1.08576z"/>
 <circle xmlns="http://www.w3.org/2000/svg" opacity="0.35" cy="1.13616" id="ReflexLeft" fill="#FFFFFF" r="0.432" cx="6.99984"/>
 <rect xmlns="http://www.w3.org/2000/svg" opacity="0.5" width="0.70272" y="0.42336" height="1.62" id="Reflex_gold" x="22.019" fill="#FFFF33"/>
 <rect xmlns="http://www.w3.org/2000/svg" opacity="0.5" width="0.70272" y="0.78336" height="0.7488" id="Reflex_extra" x="22.019" fill="#FFFFFF"/>
</g>
</g></g></g><g partID='90700'><line stroke-linecap='round' stroke='#000000' x1='95.206' y1='32.393' x2='95.184' y2='75.6785' stroke-width='3.2' /><line stroke-linecap='round' stroke='#404040' x1='95.206' y1='32.393' x2='95.184' y2='75.6785' stroke-width='1.6' /></g><g partID='90840'><line stroke-linecap='round' stroke='#ad6a38' x1='88.0445' y1='68.563' x2='87.984' y2='75.6785' stroke-width='3.2' /><line stroke-linecap='round' stroke='#ef6100' x1='88.0445' y1='68.563' x2='87.984' y2='75.6785' stroke-width='1.6' /></g><g partID='90910'><line stroke-linecap='round' stroke='#ad6a38' x1='102.466' y1='68.563' x2='88.0445' y2='68.563' stroke-width='3.2' /><line stroke-linecap='round' stroke='#ef6100' x1='102.466' y1='68.563' x2='88.0445' y2='68.563' stroke-width='1.6' /></g><g partID='90770'><line stroke-linecap='round' stroke='#ad6a38' x1='102.384' y1='61.2835' x2='102.466' y2='68.563' stroke-width='3.2' /><line stroke-linecap='round' stroke='#ef6100' x1='102.384' y1='61.2835' x2='102.466' y2='68.563' stroke-width='1.6' /></g><g partID='90980'><line stroke-linecap='round' stroke='#8c0000' x1='87.984' y1='61.2835' x2='80.8339' y2='61.3525' stroke-width='3.2' /><line stroke-linecap='round' stroke='#cc1414' x1='87.984' y1='61.2835' x2='80.8339' y2='61.3525' stroke-width='1.6' /></g><g partID='91050'><line stroke-linecap='round' stroke='#8c0000' x1='80.8339' y1='61.3525' x2='80.784' y2='75.6785' stroke-width='3.2' /><line stroke-linecap='round' stroke='#cc1414' x1='80.8339' y1='61.3525' x2='80.784' y2='75.6785' stroke-width='1.6' /></g></svg>