<?xml version='1.0' encoding='UTF-8' standalone='no'?>
<!-- Created with Fritzing (http://www.fritzing.org/) -->
<svg xmlns:svg='http://www.w3.org/2000/svg' xmlns='http://www.w3.org/2000/svg' version='1.2' baseProfile='tiny' x='0in' y='0in' width='1.44831in' height='0.902766in' viewBox='0 0 104.279 64.9992' >
<g partID='117490'><g transform='translate(93.6,8.3125)' ><g transform='matrix(0,1,-1,0,0,0)'  ><g  id="breadboardbreadboard">
 <g  id="icon">
  <path  fill="#0F7391" d="M0,0l0,93.6l50.4,0L50.4,0L0,0M41.76,3.6c0,-0.795,0.646,-1.438,1.44,-1.438s1.44,0.645,1.44,1.438s-0.646,1.44,-1.44,1.44S41.76,4.395,41.76,3.6zM34.56,3.6c0,-0.795,0.645,-1.438,1.438,-1.438c0.796,0,1.44,0.645,1.44,1.438S36.796,5.04,36,5.04C35.205,5.04,34.56,4.395,34.56,3.6zM27.36,3.6c0,-0.795,0.645,-1.438,1.438,-1.438c0.797,0,1.44,0.645,1.44,1.438s-0.645,1.44,-1.44,1.44C28.005,5.04,27.36,4.395,27.36,3.6zM20.16,3.6c0,-0.795,0.646,-1.438,1.44,-1.438s1.438,0.645,1.438,1.438S22.395,5.04,21.6,5.04C20.804,5.04,20.16,4.395,20.16,3.6zM12.96,3.6c0,-0.795,0.646,-1.438,1.44,-1.438s1.438,0.645,1.438,1.438S15.195,5.04,14.4,5.04C13.604,5.04,12.96,4.395,12.96,3.6zM5.76,3.6c0,-0.795,0.646,-1.438,1.44,-1.438S8.64,2.805,8.64,3.6S7.995,5.04,7.2,5.04S5.76,4.395,5.76,3.6zM37.08,42.84c0,-0.796,0.646,-1.44,1.44,-1.44s1.438,0.646,1.438,1.44s-0.645,1.438,-1.438,1.438C37.724,44.28,37.08,43.635,37.08,42.84zM37.08,35.64c0,-0.795,0.646,-1.438,1.44,-1.438s1.438,0.645,1.438,1.438s-0.645,1.44,-1.438,1.44C37.724,37.08,37.08,36.435,37.08,35.64zM45.36,10.8c0,-0.795,0.645,-1.44,1.438,-1.44c0.797,0,1.44,0.646,1.44,1.44s-0.646,1.438,-1.44,1.438C46.005,12.24,45.36,11.595,45.36,10.8zM45.36,18c0,-0.796,0.645,-1.44,1.438,-1.44c0.797,0,1.44,0.646,1.44,1.44s-0.646,1.438,-1.44,1.438C46.005,19.44,45.36,18.795,45.36,18zM45.36,25.2c0,-0.797,0.645,-1.44,1.438,-1.44c0.797,0,1.44,0.645,1.44,1.44c0,0.795,-0.646,1.438,-1.44,1.438C46.005,26.64,45.36,25.995,45.36,25.2zM45.36,32.4c0,-0.795,0.645,-1.438,1.438,-1.438c0.797,0,1.44,0.645,1.44,1.438c0,0.796,-0.646,1.44,-1.44,1.44C46.005,33.84,45.36,33.196,45.36,32.4zM45.36,39.6c0,-0.795,0.645,-1.438,1.438,-1.438c0.797,0,1.44,0.645,1.44,1.438s-0.646,1.44,-1.44,1.44C46.005,41.04,45.36,40.395,45.36,39.6zM45.36,46.8c0,-0.795,0.645,-1.44,1.438,-1.44c0.797,0,1.44,0.646,1.44,1.44s-0.646,1.438,-1.44,1.438C46.005,48.24,45.36,47.595,45.36,46.8zM45.36,54c0,-0.796,0.645,-1.44,1.438,-1.44c0.797,0,1.44,0.646,1.44,1.44s-0.646,1.438,-1.44,1.438C46.005,55.44,45.36,54.795,45.36,54zM45.36,61.2c0,-0.797,0.645,-1.44,1.438,-1.44c0.797,0,1.44,0.645,1.44,1.44l0,0c0,0.795,-0.646,1.438,-1.44,1.438C46.005,62.64,45.36,61.995,45.36,61.2zM45.36,68.4c0,-0.795,0.645,-1.438,1.438,-1.438c0.797,0,1.44,0.645,1.44,1.438l0,0c0,0.796,-0.646,1.44,-1.44,1.44C46.005,69.84,45.36,69.196,45.36,68.4zM45.36,75.6c0,-0.795,0.645,-1.438,1.438,-1.438c0.797,0,1.44,0.645,1.44,1.438s-0.646,1.44,-1.44,1.44C46.005,77.04,45.36,76.395,45.36,75.6zM45.36,82.8c0,-0.795,0.645,-1.44,1.438,-1.44c0.797,0,1.44,0.646,1.44,1.44s-0.646,1.438,-1.44,1.438C46.005,84.24,45.36,83.595,45.36,82.8zM45.36,90c0,-0.796,0.645,-1.44,1.438,-1.44c0.797,0,1.44,0.646,1.44,1.44s-0.646,1.438,-1.44,1.438C46.005,91.44,45.36,90.795,45.36,90zM2.16,90c0,-0.796,0.646,-1.44,1.439,-1.44c0.796,-0.001,1.439,0.645,1.439,1.439c0,0,0,0,0,0.001c0,0.795,-0.645,1.438,-1.438,1.438C2.804,91.44,2.16,90.795,2.16,90zM2.16,82.8c0,-0.795,0.646,-1.44,1.439,-1.44c0.796,0,1.439,0.646,1.439,1.439L5.038,82.8c0,0.795,-0.645,1.438,-1.438,1.438C2.804,84.24,2.16,83.595,2.16,82.8zM2.16,75.6c0,-0.795,0.646,-1.439,1.439,-1.439c0.796,0,1.439,0.645,1.439,1.438L5.038,75.6c0,0.795,-0.645,1.44,-1.438,1.44C2.804,77.04,2.16,76.395,2.16,75.6zM2.16,68.4c0,-0.795,0.646,-1.438,1.439,-1.439c0.796,0,1.439,0.645,1.439,1.438c0,0.001,0,0.001,0,0.001c0,0.796,-0.645,1.44,-1.438,1.44C2.804,69.84,2.16,69.196,2.16,68.4zM2.16,61.2c0,-0.797,0.646,-1.44,1.439,-1.441c0.796,0,1.439,0.645,1.439,1.439c0,0,0,0,0,0.002c0,0.795,-0.645,1.438,-1.438,1.438C2.804,62.64,2.16,61.995,2.16,61.2zM2.16,54c0,-0.796,0.646,-1.44,1.439,-1.44c0.796,-0.001,1.439,0.645,1.439,1.439c0,0,0,0,0,0.001c0,0.795,-0.645,1.438,-1.438,1.438C2.804,55.44,2.16,54.795,2.16,54zM2.16,46.8c0,-0.795,0.646,-1.44,1.439,-1.44c0.796,0,1.439,0.646,1.439,1.439L5.038,46.8c0,0.795,-0.645,1.438,-1.438,1.438C2.804,48.24,2.16,47.595,2.16,46.8zM2.16,39.6c0,-0.795,0.646,-1.439,1.439,-1.439c0.796,0,1.439,0.645,1.439,1.438L5.038,39.6c0,0.795,-0.645,1.44,-1.438,1.44C2.804,41.04,2.16,40.395,2.16,39.6zM2.16,32.4c0,-0.795,0.646,-1.438,1.439,-1.439c0.796,0,1.439,0.645,1.439,1.438c0,0.001,0,0.001,0,0.001c0,0.796,-0.645,1.44,-1.438,1.44C2.804,33.84,2.16,33.196,2.16,32.4zM2.16,25.2c0,-0.797,0.646,-1.44,1.439,-1.441c0.796,0,1.439,0.645,1.439,1.439c0,0,0,0,0,0.002c0,0.795,-0.645,1.438,-1.438,1.438C2.804,26.64,2.16,25.995,2.16,25.2L2.16,25.2zM2.16,18c0,-0.796,0.646,-1.44,1.439,-1.44c0.796,-0.001,1.439,0.645,1.439,1.439c0,0,0,0,0,0.001c0,0.795,-0.645,1.438,-1.438,1.438C2.804,19.44,2.16,18.795,2.16,18zM2.16,10.8c0,-0.795,0.646,-1.44,1.439,-1.44c0.796,0,1.439,0.646,1.439,1.439L5.038,10.8c0,0.795,-0.645,1.438,-1.438,1.438C2.804,12.24,2.16,11.595,2.16,10.8z"/>
  <g >
   <circle  stroke-width="0.72" cx="3.6" fill="none" r="2.88" stroke="#FFFFFF" cy="68.4"/>
   <circle  stroke-width="0.72" cx="3.6" fill="none" r="2.88" stroke="#FFFFFF" cy="61.2"/>
   <circle  stroke-width="0.72" cx="3.6" fill="none" r="2.88" stroke="#FFFFFF" cy="46.8"/>
   <circle  stroke-width="0.72" cx="3.6" fill="none" r="2.88" stroke="#FFFFFF" cy="90"/>
   <circle  stroke-width="0.72" cx="46.8" fill="none" r="2.88" stroke="#FFFFFF" cy="90"/>
   <circle  stroke-width="0.72" cx="46.8" fill="none" r="2.88" stroke="#FFFFFF" cy="82.8"/>
   <g >
    <title >text:Arduino Pro</title>
    <g transform="matrix(1, 0, 0, 1, 14.0437, 15.8401)">
     <text  font-family="'OCRA'" fill="#FFFFFF" font-size="3">Arduino Pro</text>
    </g>
   </g>
   <g >
    <title >text:Mini</title>
    <g transform="matrix(1, 0, 0, 1, 20.9749, 12.2395)">
     <text  font-family="'OCRA'" fill="#FFFFFF" font-size="3">Mini</text>
    </g>
   </g>
   <g >
    <title >layer 21</title>
    <g >
     <title >text:Reset</title>
     <g transform="matrix(1, 0, 0, 1, 20.7922, 77.8323)">
      <text  font-family="'OCRA'" fill="#FFFFFF" font-size="2.5">Reset</text>
     </g>
    </g>
    <g >
     <title >text:9</title>
     <g transform="matrix(1, 0, 0, 1, 9.72, 91.08)">
      <g >
       <g transform="rotate(270)">
        <g >
         <g transform="matrix(1, 0, 0, 1, -0.000305176, -0.000518799)">
          <text  font-family="'OCRA'" fill="#FFFFFF" font-size="2.5">9</text>
         </g>
        </g>
       </g>
      </g>
     </g>
    </g>
    <g >
     <title >text:8</title>
     <g transform="matrix(1, 0, 0, 1, 9.72, 83.88)">
      <g >
       <g transform="rotate(270)">
        <g >
         <g transform="matrix(1, 0, 0, 1, 0.000854492, -0.000518799)">
          <text  font-family="'OCRA'" fill="#FFFFFF" font-size="2.5">8</text>
         </g>
        </g>
       </g>
      </g>
     </g>
    </g>
    <g >
     <title >text:7</title>
     <g transform="matrix(1, 0, 0, 1, 9.72, 76.32)">
      <g >
       <g transform="rotate(270)">
        <g >
         <g transform="matrix(1, 0, 0, 1, 0.000427246, -0.000518799)">
          <text  font-family="'OCRA'" fill="#FFFFFF" font-size="2.5">7</text>
         </g>
        </g>
       </g>
      </g>
     </g>
    </g>
    <g >
     <title >text:6</title>
     <g transform="matrix(1, 0, 0, 1, 9.72, 69.48)">
      <g >
       <g transform="rotate(270)">
        <g >
         <g transform="matrix(1, 0, 0, 1, 0.000274658, -0.000518799)">
          <text  font-family="'OCRA'" fill="#FFFFFF" font-size="2.5">6</text>
         </g>
        </g>
       </g>
      </g>
     </g>
    </g>
    <g >
     <title >text:5</title>
     <g transform="matrix(1, 0, 0, 1, 9.72, 62.28)">
      <g >
       <g transform="rotate(270)">
        <g >
         <g transform="matrix(1, 0, 0, 1, 0.000457764, -0.000518799)">
          <text  font-family="'OCRA'" fill="#FFFFFF" font-size="2.5">5</text>
         </g>
        </g>
       </g>
      </g>
     </g>
    </g>
    <g >
     <title >text:4</title>
     <g transform="matrix(1, 0, 0, 1, 9.72, 55.08)">
      <g >
       <g transform="rotate(270)">
        <g >
         <g transform="matrix(1, 0, 0, 1, -0.000305176, -0.000518799)">
          <text  font-family="'OCRA'" fill="#FFFFFF" font-size="2.5">4</text>
         </g>
        </g>
       </g>
      </g>
     </g>
    </g>
    <g >
     <title >text:3</title>
     <g transform="matrix(1, 0, 0, 1, 9.72, 47.88)">
      <g >
       <g transform="rotate(270)">
        <g >
         <g transform="matrix(1, 0, 0, 1, 0.000854492, -0.000518799)">
          <text  font-family="'OCRA'" fill="#FFFFFF" font-size="2.5">3</text>
         </g>
        </g>
       </g>
      </g>
     </g>
    </g>
    <g >
     <title >text:2</title>
     <g transform="matrix(1, 0, 0, 1, 9.36, 40.32)">
      <g >
       <g transform="rotate(270)">
        <g >
         <g transform="matrix(1, 0, 0, 1, 0.000427246, -0.000854492)">
          <text  font-family="'OCRA'" fill="#FFFFFF" font-size="2.5">2</text>
         </g>
        </g>
       </g>
      </g>
     </g>
    </g>
    <g >
     <title >text:GND</title>
     <g transform="matrix(1, 0, 0, 1, 9.36, 35.64)">
      <g >
       <g transform="rotate(270)">
        <g >
         <g transform="matrix(1, 0, 0, 1, 0.00012207, -0.000854492)">
          <text  font-family="'OCRA'" fill="#FFFFFF" font-size="2.5">GND</text>
         </g>
        </g>
       </g>
      </g>
     </g>
    </g>
    <g >
     <title >text:RST</title>
     <g transform="matrix(1, 0, 0, 1, 9.36, 28.08)">
      <g >
       <g transform="rotate(270)">
        <g >
         <g transform="matrix(1, 0, 0, 1, -0.000335693, -0.000854492)">
          <text  font-family="'OCRA'" fill="#FFFFFF" font-size="2.5">RST</text>
         </g>
        </g>
       </g>
      </g>
     </g>
    </g>
    <g >
     <title >text:RXI</title>
     <g transform="matrix(1, 0, 0, 1, 9.36, 20.88)">
      <g >
       <g transform="rotate(270)">
        <g >
         <g transform="matrix(1, 0, 0, 1, 0.000854492, -0.000854492)">
          <text  font-family="'OCRA'" fill="#FFFFFF" font-size="2.5">RXI</text>
         </g>
        </g>
       </g>
      </g>
     </g>
    </g>
    <g >
     <title >text:TXO</title>
     <g transform="matrix(1, 0, 0, 1, 9.36, 13.68)">
      <g >
       <g transform="rotate(270)">
        <g >
         <g transform="matrix(1, 0, 0, 1, 6.10352e-05, -0.000854492)">
          <text  font-family="'OCRA'" fill="#FFFFFF" font-size="2.5">TXO</text>
         </g>
        </g>
       </g>
      </g>
     </g>
    </g>
    <g >
     <title >text:TXO</title>
     <g transform="matrix(1, 0, 0, 1, 33.1199, 8.7483)">
      <text  font-family="'OCRA'" fill="#FFFFFF" font-size="2.5">TXO</text>
     </g>
    </g>
    <g >
     <title >text:RXI</title>
     <g transform="matrix(1, 0, 0, 1, 26.28, 8.7483)">
      <text  font-family="'OCRA'" fill="#FFFFFF" font-size="2.5">RXI</text>
     </g>
    </g>
    <g >
     <title >text:RAW</title>
     <g transform="matrix(1, 0, 0, 1, 43.56, 13.68)">
      <g >
       <g transform="rotate(270)">
        <g >
         <g transform="matrix(1, 0, 0, 1, 6.10352e-05, -0.000671387)">
          <text  font-family="'OCRA'" fill="#FFFFFF" font-size="2.5">RAW</text>
         </g>
        </g>
       </g>
      </g>
     </g>
    </g>
    <g >
     <title >text:GND</title>
     <g transform="matrix(1, 0, 0, 1, 43.56, 20.88)">
      <g >
       <g transform="rotate(270)">
        <g >
         <g transform="matrix(1, 0, 0, 1, 0.000854492, -0.000671387)">
          <text  font-family="'OCRA'" fill="#FFFFFF" font-size="2.5">GND</text>
         </g>
        </g>
       </g>
      </g>
     </g>
    </g>
    <g >
     <title >text:RST</title>
     <g transform="matrix(1, 0, 0, 1, 43.56, 28.08)">
      <g >
       <g transform="rotate(270)">
        <g >
         <g transform="matrix(1, 0, 0, 1, -0.000335693, -0.000671387)">
          <text  font-family="'OCRA'" fill="#FFFFFF" font-size="2.5">RST</text>
         </g>
        </g>
       </g>
      </g>
     </g>
    </g>
    <g >
     <title >text:VCC</title>
     <g transform="matrix(1, 0, 0, 1, 43.56, 35.28)">
      <g >
       <g transform="rotate(270)">
        <g >
         <g transform="matrix(1, 0, 0, 1, 0.000457764, -0.000671387)">
          <text  font-family="'OCRA'" fill="#FFFFFF" font-size="2.5">VCC</text>
         </g>
        </g>
       </g>
      </g>
     </g>
    </g>
    <g >
     <title >text:A3</title>
     <g transform="matrix(1, 0, 0, 1, 43.56, 41.4)">
      <g >
       <g transform="rotate(270)">
        <g >
         <g transform="matrix(1, 0, 0, 1, 0.000335693, -0.000671387)">
          <text  font-family="'OCRA'" fill="#FFFFFF" font-size="2.5">A3</text>
         </g>
        </g>
       </g>
      </g>
     </g>
    </g>
    <g >
     <title >text:A2</title>
     <g transform="matrix(1, 0, 0, 1, 43.56, 48.6)">
      <g >
       <g transform="rotate(270)">
        <g >
         <g transform="matrix(1, 0, 0, 1, 0.000152588, -0.000671387)">
          <text  font-family="'OCRA'" fill="#FFFFFF" font-size="2.5">A2</text>
         </g>
        </g>
       </g>
      </g>
     </g>
    </g>
    <g >
     <title >text:A1</title>
     <g transform="matrix(1, 0, 0, 1, 43.56, 56.16)">
      <g >
       <g transform="rotate(270)">
        <g >
         <g transform="matrix(1, 0, 0, 1, -0.000396729, -0.000671387)">
          <text  font-family="'OCRA'" fill="#FFFFFF" font-size="2.5">A1</text>
         </g>
        </g>
       </g>
      </g>
     </g>
    </g>
    <g >
     <title >text:A0</title>
     <g transform="matrix(1, 0, 0, 1, 43.56, 63.36)">
      <g >
       <g transform="rotate(270)">
        <g >
         <g transform="matrix(1, 0, 0, 1, 0.000366211, -0.000671387)">
          <text  font-family="'OCRA'" fill="#FFFFFF" font-size="2.5">A0</text>
         </g>
        </g>
       </g>
      </g>
     </g>
    </g>
    <g >
     <title >text:13</title>
     <g transform="matrix(1, 0, 0, 1, 43.56, 70.56)">
      <g >
       <g transform="rotate(270)">
        <g >
         <g transform="matrix(1, 0, 0, 1, 0.000183105, -0.000671387)">
          <text  font-family="'OCRA'" fill="#FFFFFF" font-size="2.5">13</text>
         </g>
        </g>
       </g>
      </g>
     </g>
    </g>
    <g >
     <title >text:12</title>
     <g transform="matrix(1, 0, 0, 1, 43.56, 77.76)">
      <g >
       <g transform="rotate(270)">
        <g >
         <g transform="matrix(1, 0, 0, 1, 0, -0.000671387)">
          <text  font-family="'OCRA'" fill="#FFFFFF" font-size="2.5">12</text>
         </g>
        </g>
       </g>
      </g>
     </g>
    </g>
    <g >
     <title >text:11</title>
     <g transform="matrix(1, 0, 0, 1, 43.56, 84.96)">
      <g >
       <g transform="rotate(270)">
        <g >
         <g transform="matrix(1, 0, 0, 1, 0.000762939, -0.000671387)">
          <text  font-family="'OCRA'" fill="#FFFFFF" font-size="2.5">11</text>
         </g>
        </g>
       </g>
      </g>
     </g>
    </g>
    <g >
     <title >text:10</title>
     <g transform="matrix(1, 0, 0, 1, 43.56, 92.16)">
      <g >
       <g transform="rotate(270)">
        <g >
         <g transform="matrix(1, 0, 0, 1, -0.000396729, -0.000671387)">
          <text  font-family="'OCRA'" fill="#FFFFFF" font-size="2.5">10</text>
         </g>
        </g>
       </g>
      </g>
     </g>
    </g>
    <g >
     <title >text:VCC</title>
     <g transform="matrix(1, 0, 0, 1, 18.7195, 8.7483)">
      <text  font-family="'OCRA'" fill="#FFFFFF" font-size="2.5">VCC</text>
     </g>
    </g>
    <g >
     <title >text:GND</title>
     <g transform="matrix(1, 0, 0, 1, 11.5198, 8.7483)">
      <text  font-family="'OCRA'" fill="#FFFFFF" font-size="2.5">GND</text>
     </g>
    </g>
    <g >
     <title >text:BLK</title>
     <g transform="matrix(1, 0, 0, 1, 3.6, 6.48)">
      <g >
       <g transform="rotate(270)">
        <g >
         <g transform="matrix(1, 0, 0, 1, 0.000274658, -0.000640869)">
          <text  font-family="'OCRA'" fill="#FFFFFF" font-size="2.5">BLK</text>
         </g>
        </g>
       </g>
      </g>
     </g>
    </g>
    <g >
     <title >text:GRN</title>
     <g transform="matrix(1, 0, 0, 1, 48.96, 6.48)">
      <g >
       <g transform="rotate(270)">
        <g >
         <g transform="matrix(1, 0, 0, 1, 0.000274658, -0.000305176)">
          <text  font-family="'OCRA'" fill="#FFFFFF" font-size="2.5">GRN</text>
         </g>
        </g>
       </g>
      </g>
     </g>
    </g>
    <g >
     <title >text:Released under the Creative Commons Attribution Share-Alike 3.0 License</title>
    </g>
    <g >
     <title >text:http://creativecommons.org/licenses/by-sa/3.0</title>
    </g>
    <g >
     <title >element:JP1</title>
     <g >
      <title >package:1X06</title>
     </g>
    </g>
    <g >
     <title >element:JP2</title>
     <g >
      <title >package:1X02</title>
     </g>
    </g>
    <g >
     <title >element:JP3</title>
     <g >
      <title >package:1X01</title>
     </g>
    </g>
    <g >
     <title >element:JP4</title>
     <g >
      <title >package:1X01</title>
     </g>
    </g>
    <g >
     <title >element:JP5</title>
     <g >
      <title >package:MICRO-FIDUCIAL</title>
     </g>
    </g>
    <g >
     <title >element:JP6</title>
     <g >
      <title >package:1X12</title>
     </g>
    </g>
    <g >
     <title >element:JP7</title>
     <g >
      <title >package:1X12</title>
     </g>
    </g>
    <g >
     <title >element:JP8</title>
     <g >
      <title >package:MICRO-FIDUCIAL</title>
     </g>
    </g>
    <g >
     <title >element:R1</title>
     <g >
      <title >package:0402-RES</title>
     </g>
    </g>
    <g >
     <title >element:R3</title>
     <g >
      <title >package:0402-RES</title>
     </g>
    </g>
    <g >
     <title >element:U$1</title>
     <g >
      <title >package:SFE-LOGO-FLAME</title>
      <g >
       <title >polygon</title>
       <path  stroke-width="0.072" stroke-linecap="round" fill="none" d="M13.068,68.421L12.931,68.4M12.931,68.4l-0.268,-0.021M12.665,68.379L12.398,68.4M12.398,68.4L12.2,68.452M12.2,68.452l-0.184,0.091M12.016,68.543l-0.161,0.126M11.855,68.669l-0.134,0.154M11.721,68.823l-0.113,0.208M11.608,69.031l-0.068,0.228M11.54,69.259l-0.02,0.235M11.52,69.494l0,4.299M11.52,73.793l1.382,-1.557M12.902,72.238l0.246,-0.226M13.148,72.012l0.287,-0.171M13.435,71.841l0.104,-0.038M13.541,71.803l0.11,-0.019M13.651,71.784L14.3,71.784M14.3,71.784l0.387,-0.035M14.685,71.749l0.374,-0.104M15.059,71.645l0.349,-0.17M15.408,71.475l0.328,-0.231M15.736,71.242l0.293,-0.275M16.029,70.967l0.25,-0.313M16.279,70.654l0.269,-0.477M16.548,70.177l0.179,-0.517M16.725,69.66l0.082,-0.541M16.807,69.119l-0.018,-0.548M16.791,68.573l-0.059,-0.294M16.732,68.279l-0.103,-0.282M16.631,67.995l-0.143,-0.266M16.488,67.731l-0.257,-0.321M16.231,67.408l-0.319,-0.263M15.912,67.147l0,0.252M15.912,67.399l-0.005,0.041M15.907,67.44l-0.017,0.039M15.89,67.479l-0.084,0.104M15.806,67.582l-0.11,0.076M15.696,67.658l-0.058,0.021M15.638,67.68l-0.162,0.018M15.476,67.698l-0.16,-0.028M15.316,67.668l-0.146,-0.075M15.171,67.593l-0.26,-0.188M14.911,67.406l-0.119,-0.104M14.792,67.303l-0.104,-0.12M14.688,67.183l-0.083,-0.135M14.605,67.048l-0.062,-0.146M14.545,66.903l-0.019,-0.093M14.526,66.81l0.004,-0.095M14.53,66.715l0.047,-0.156M14.577,66.559l0.086,-0.139M14.663,66.42l0.119,-0.11M14.782,66.31l0.144,-0.077M14.926,66.233l0.146,-0.041M15.071,66.192l0.149,-0.017M15.22,66.175l0.173,0M15.393,66.175L15.393,66.175M15.393,66.175l-0.007,-0.007M15.386,66.168l-0.123,-0.097M15.263,66.073l-0.145,-0.063M15.12,66.009l-0.101,-0.043M15.019,65.966l-0.064,-0.028M14.955,65.938l-0.249,-0.063M14.706,65.875l-0.255,-0.024M14.451,65.851l-0.247,0.02M14.204,65.869l-0.237,0.065M13.967,65.936l-0.222,0.109M13.745,66.045l-0.221,0.159M13.524,66.204l-0.197,0.187M13.327,66.391l-0.122,0.171M13.205,66.562l-0.075,0.196M13.13,66.758l-0.023,0.209M13.105,66.967l0.026,0.209M13.133,67.176l0.08,0.194M13.213,67.37l0.336,0.498M13.549,67.868l0.412,0.438M13.961,68.307l0.108,0.127M14.069,68.434l0.072,0.151M14.141,68.585l0.03,0.164M14.173,68.749l-0.014,0.167M14.159,68.916l-0.056,0.157M14.103,69.073l-0.096,0.139M14.009,69.212l-0.127,0.108M13.882,69.322l-0.159,0.087M13.721,69.406l-0.173,0.06M13.55,69.466l-0.179,0.028M13.371,69.494l-0.21,-0.012M13.161,69.484l-0.201,-0.061M12.96,69.423l-0.18,-0.108M12.78,69.315l-0.095,-0.101M12.685,69.214l-0.063,-0.123M12.622,69.091l-0.027,-0.126M12.594,68.965l0,-0.13M12.594,68.835l0.027,-0.126M12.622,68.709l0.025,-0.048M12.647,68.661l0.039,-0.038M12.686,68.623l0.237,-0.173M12.925,68.45l0.045,-0.023M12.969,68.427l0.05,-0.011M13.018,68.416l0.05,0.005M11.52,73.728l0.058,0M11.52,73.656l0.122,0M11.52,73.584l0.186,0M11.52,73.512l0.25,0M11.52,73.44l0.313,0M11.52,73.368l0.378,0M11.52,73.296l0.44,0M11.52,73.224l0.506,0M11.52,73.152l0.568,0M11.52,73.08l0.634,0M11.52,73.008l0.696,0M11.52,72.936l0.762,0M11.52,72.864l0.825,0M11.52,72.792l0.89,0M11.52,72.72l0.953,0M11.52,72.648l1.018,0M11.52,72.576l1.081,0M11.52,72.504l1.146,0M11.52,72.432l1.209,0M11.52,72.36l1.272,0M11.52,72.288l1.337,0M11.52,72.216l1.404,0M11.52,72.144l1.483,0M11.52,72.072l1.563,0M11.52,72l1.647,0M11.52,71.928l1.77,0M11.52,71.856l1.891,0M11.52,71.784L14.3,71.784M11.52,71.712l3.298,0M11.52,71.64l3.549,0M11.52,71.568l3.695,0M11.52,71.496l3.844,0M11.52,71.424l3.959,0M11.52,71.352l4.062,0M11.52,71.28l4.163,0M11.52,71.208l4.253,0M11.52,71.136l4.329,0M11.52,71.064l4.405,0M11.52,70.992l4.481,0M11.52,70.92l4.546,0M11.52,70.848l4.604,0M11.52,70.776l4.661,0M11.52,70.704l4.719,0M11.52,70.632l4.771,0M11.52,70.56l4.812,0M11.52,70.488l4.853,0M11.52,70.416l4.893,0M11.52,70.344l4.934,0M11.52,70.272l4.974,0M11.52,70.2l5.015,0M11.52,70.128l5.044,0M11.52,70.056l5.068,0M11.52,69.984l5.094,0M11.52,69.912l5.119,0M11.52,69.84l5.144,0M11.52,69.768l5.168,0M11.52,69.696l5.192,0M11.52,69.624l5.211,0M11.52,69.552l5.222,0M11.521,69.48l1.626,0M13.462,69.48l3.291,0M11.527,69.408l1.408,0M13.721,69.408l3.042,0M11.534,69.336l1.282,0M13.855,69.336l2.92,0M11.54,69.264l1.192,0M13.949,69.264l2.837,0M11.56,69.192l1.112,0M14.023,69.192l2.772,0M11.582,69.12l1.056,0M14.072,69.12l2.735,0M11.603,69.048l1.009,0M14.113,69.048l2.692,0M11.639,68.976l0.957,0M14.138,68.976l2.665,0M11.678,68.904l0.914,0M14.16,68.904l2.641,0M11.717,68.832l0.878,0M14.166,68.832l2.633,0M11.777,68.76l0.833,0M14.172,68.76l2.625,0M11.839,68.688l0.795,0M14.161,68.688l2.633,0M11.923,68.615l0.773,0M14.147,68.615l2.645,0M12.015,68.544l0.779,0M14.122,68.544l2.663,0M12.16,68.472l0.734,0M14.088,68.472l2.684,0M12.398,68.4l0.533,0M14.041,68.4l2.715,0M13.979,68.328l2.763,0M13.914,68.256l2.811,0M13.845,68.184l2.853,0M13.777,68.112l2.896,0M13.71,68.04l2.938,0M13.642,67.968l2.974,0M13.574,67.896l3.003,0M13.518,67.823l3.021,0M13.469,67.752l3.029,0M13.421,67.68l1.961,0M15.638,67.68l0.81,0M13.373,67.608l1.826,0M15.769,67.608l0.621,0M13.324,67.536l1.767,0M15.844,67.536l0.489,0M13.275,67.464l1.716,0M15.896,67.464l0.38,0M13.226,67.392l1.668,0M15.912,67.392l0.3,0M13.192,67.32l1.618,0M15.912,67.32l0.212,0M13.163,67.248l1.581,0M15.912,67.248l0.124,0M13.134,67.176l1.552,0M15.912,67.176l0.036,0M13.123,67.104l1.518,0M13.114,67.031l1.484,0M13.105,66.96l1.463,0M13.114,66.888l1.428,0M13.123,66.816l1.404,0M13.134,66.744l1.396,0M13.163,66.672l1.38,0M13.19,66.6l1.374,0M13.229,66.528l1.367,0M13.281,66.456l1.359,0M13.335,66.384l1.367,0M13.411,66.312l1.368,0M13.487,66.24l1.426,0M13.575,66.168l1.813,0M13.675,66.096l1.619,0M13.788,66.024l1.365,0M13.933,65.952l1.054,0M14.168,65.88l0.558,0" stroke="#FFFFFF"/>
      </g>
     </g>
    </g>
    <g >
     <title >element:U$3</title>
     <g >
      <title >package:OSHW-LOGO-S</title>
     </g>
    </g>
    <g >
     <title >element:U$11</title>
     <g >
      <title >package:SFE-NEW-WEBLOGO</title>
     </g>
    </g>
    <g >
     <title >element:U1</title>
     <g >
      <title >package:TQFP32-08</title>
      <polygon  fill="#333333" points="39.251,54,25.2,68.051,11.149,54,24.488,40.66,25.912,40.66"/>
     </g>
    </g>
   </g>
  </g>
  <circle  stroke-width="1.224" cx="43.2" fill="none" r="2.052" id="connector14pin" stroke="#9A916C" cy="3.6"/>
  <circle  stroke-width="1.224" cx="36" fill="none" r="2.052" id="connector15pin" stroke="#9A916C" cy="3.6"/>
  <circle  stroke-width="1.224" cx="28.8" fill="none" r="2.052" id="connector16pin" stroke="#9A916C" cy="3.6"/>
  <circle  stroke-width="1.224" cx="21.6" fill="none" r="2.052" id="connector17pin" stroke="#9A916C" cy="3.6"/>
  <circle  stroke-width="1.224" cx="14.4" fill="none" r="2.052" id="connector18pin" stroke="#9A916C" cy="3.6"/>
  <circle  stroke-width="1.224" cx="7.2" fill="none" r="2.052" id="connector19pin" stroke="#9A916C" cy="3.6"/>
  <circle  stroke-width="1.224" cx="38.52" fill="none" r="2.052" id="connector20pin" stroke="#9A916C" cy="42.84"/>
  <circle  stroke-width="1.224" cx="38.52" fill="none" r="2.052" id="connector21pin" stroke="#9A916C" cy="35.64"/>
  <circle  stroke-width="1.224" cx="46.8" fill="none" r="2.052" id="connector25pin" stroke="#9A916C" cy="10.8"/>
  <circle  stroke-width="1.224" cx="46.8" fill="none" r="2.052" id="connector26pin" stroke="#9A916C" cy="18"/>
  <circle  stroke-width="1.224" cx="46.8" fill="none" r="2.052" id="connector27pin" stroke="#9A916C" cy="25.2"/>
  <circle  stroke-width="1.224" cx="46.8" fill="none" r="2.052" id="connector28pin" stroke="#9A916C" cy="32.4"/>
  <circle  stroke-width="1.224" cx="46.8" fill="none" r="2.052" id="connector29pin" stroke="#9A916C" cy="39.6"/>
  <circle  stroke-width="1.224" cx="46.8" fill="none" r="2.052" id="connector30pin" stroke="#9A916C" cy="46.8"/>
  <circle  stroke-width="1.224" cx="46.8" fill="none" r="2.052" id="connector31pin" stroke="#9A916C" cy="54"/>
  <circle  stroke-width="1.224" cx="46.8" fill="none" r="2.052" id="connector32pin" stroke="#9A916C" cy="61.2"/>
  <circle  stroke-width="1.224" cx="46.8" fill="none" r="2.052" id="connector33pin" stroke="#9A916C" cy="68.4"/>
  <circle  stroke-width="1.224" cx="46.8" fill="none" r="2.052" id="connector34pin" stroke="#9A916C" cy="75.6"/>
  <circle  stroke-width="1.224" cx="46.8" fill="none" r="2.052" id="connector35pin" stroke="#9A916C" cy="82.8"/>
  <circle  stroke-width="1.224" cx="46.8" fill="none" r="2.052" id="connector36pin" stroke="#9A916C" cy="90"/>
  <circle  stroke-width="1.224" cx="3.6" fill="none" r="2.052" id="connector37pin" stroke="#9A916C" cy="90"/>
  <circle  stroke-width="1.224" cx="3.6" fill="none" r="2.052" id="connector38pin" stroke="#9A916C" cy="82.8"/>
  <circle  stroke-width="1.224" cx="3.6" fill="none" r="2.052" id="connector39pin" stroke="#9A916C" cy="75.6"/>
  <circle  stroke-width="1.224" cx="3.6" fill="none" r="2.052" id="connector40pin" stroke="#9A916C" cy="68.4"/>
  <circle  stroke-width="1.224" cx="3.6" fill="none" r="2.052" id="connector41pin" stroke="#9A916C" cy="61.2"/>
  <circle  stroke-width="1.224" cx="3.6" fill="none" r="2.052" id="connector42pin" stroke="#9A916C" cy="54"/>
  <circle  stroke-width="1.224" cx="3.6" fill="none" r="2.052" id="connector43pin" stroke="#9A916C" cy="46.8"/>
  <circle  stroke-width="1.224" cx="3.6" fill="none" r="2.052" id="connector44pin" stroke="#9A916C" cy="39.6"/>
  <circle  stroke-width="1.224" cx="3.6" fill="none" r="2.052" id="connector45pin" stroke="#9A916C" cy="32.4"/>
  <circle  stroke-width="1.224" cx="3.6" fill="none" r="2.052" id="connector46pin" stroke="#9A916C" cy="25.2"/>
  <circle  stroke-width="1.224" cx="3.6" fill="none" r="2.052" id="connector47pin" stroke="#9A916C" cy="18"/>
  <circle  stroke-width="1.224" cx="3.6" fill="none" r="2.052" id="connector48pin" stroke="#9A916C" cy="10.8"/>
 </g>
 <g transform="matrix(1, 0, 0, 1, 26.2068, 69.663)">
  <g  id="_x30_402-cap_1_">
   <g transform="matrix(-1, 0, 0, -1, 2.559, 5.67)">
    <g >
     <g transform="matrix(1, 0, 0, 1, 10.275, 76.1789)">
      <g  id="_x30_402-cap">
       <g transform="matrix(0, 1, -1, 0, 4.1105, -1.5595)">
        <g >
         <g >
          <g >
           <g transform="matrix(-2.54711e-06, -1, 1, -2.54711e-06, -84.8837, -58.6858)">
            <rect  x="-73.064" height="5.67" fill="#534741" y="10.264" width="2.559"/>
           </g>
           <g transform="matrix(-2.54711e-06, -1, 1, -2.54711e-06, -86.1523, -57.4192)">
            <rect  x="-71.796" height="5.67" y="11.531" enable-background="new    " width="0.021" opacity="0.2"/>
           </g>
           <g transform="matrix(-2.54711e-06, -1, 1, -2.54711e-06, -83.6201, -59.9514)">
            <rect  x="-71.801" height="5.67" fill="#FFFFFF" y="8.999" enable-background="new    " width="0.031" opacity="0.2"/>
           </g>
          </g>
          <g >
           <path  fill="#DCDCDC" d="M-69.771,11.819L-69.771,11.819L-69.771,11.819l-0.065,0l0,0c-0.06,0.171,-0.1,0.813,-0.1,1.002c0,0.199,0.035,1.379,0.1,1.559l0.89,0l0,-2.561L-69.771,11.819z"/>
           <path  fill="#DCDCDC" d="M-73.733,11.89l0,-0.071l-0.887,0l0,2.56l0.887,0c0.063,-0.183,0.139,-1.354,0.139,-1.558C-73.595,12.586,-73.649,12.095,-73.733,11.89z"/>
           <g transform="matrix(-2.54711e-06, -1, 1, -2.54711e-06, -88.538, -59.8147)">
            <rect  x="-74.191" height="0.887" y="13.918" enable-background="new    " width="0.029" opacity="0.15"/>
           </g>
           <g transform="matrix(-2.54711e-06, -1, 1, -2.54711e-06, -86.0117, -62.341)">
            <rect  x="-74.192" height="0.887" fill="#FFFFFF" y="11.392" enable-background="new    " width="0.031" opacity="0.5"/>
           </g>
           <path  fill="#D1C690" d="M-68.949,14.378l-0.89,0"/>
           <g transform="matrix(-2.54711e-06, -1, 1, -2.54711e-06, -83.7553, -55.0319)">
            <rect  x="-69.408" height="0.888" y="13.918" enable-background="new    " width="0.029" opacity="0.15"/>
           </g>
           <g transform="matrix(-2.54711e-06, -1, 1, -2.54711e-06, -81.228, -57.5583)">
            <rect  x="-69.408" height="0.889" fill="#FFFFFF" y="11.39" enable-background="new    " width="0.03" opacity="0.5"/>
           </g>
           <line  fill="none" x1="-74.078" y2="14.377" y1="14.377" x2="-74.078"/>
          </g>
         </g>
        </g>
       </g>
      </g>
     </g>
     <rect  x="0.016" height="0.116" y="5.566" enable-background="new    " width="2.542" opacity="0.1"/>
     <rect  x="0.016" height="0.116" fill="#FFFFFF" y="0" enable-background="new    " width="2.542" opacity="0.2"/>
    </g>
   </g>
  </g>
 </g>
 <g transform="matrix(1, 0, 0, 1, 16.2225, 34.7313)">
  <g  id="_x30_402-cap_3_">
   <g transform="matrix(1, 0, 0, 1, 10.275, 76.1789)">
    <g  id="_x30_402-cap_2_">
     <g transform="matrix(0, 1, -1, 0, 4.1105, -1.5595)">
      <g >
       <g >
        <g >
         <g transform="matrix(2.57889e-06, 1, -1, 2.57889e-06, -58.6858, 84.884)">
          <rect  x="-73.065" height="5.67" fill="#534741" y="10.264" width="2.56"/>
         </g>
         <g transform="matrix(2.57889e-06, 1, -1, 2.57889e-06, -57.4187, 86.152)">
          <rect  x="-71.796" height="5.671" y="11.531" enable-background="new    " width="0.021" opacity="0.2"/>
         </g>
         <g transform="matrix(2.57889e-06, 1, -1, 2.57889e-06, -59.9505, 83.6193)">
          <rect  x="-71.8" height="5.67" fill="#FFFFFF" y="8.999" enable-background="new    " width="0.03" opacity="0.2"/>
         </g>
        </g>
        <g >
         <path  fill="#DCDCDC" d="M-69.771,11.819L-69.771,11.819L-69.771,11.819l-0.063,0l0,0c-0.062,0.171,-0.102,0.812,-0.102,1.002c0,0.199,0.035,1.379,0.102,1.557l0.888,0l0,-2.559L-69.771,11.819z"/>
         <path  fill="#DCDCDC" d="M-73.733,11.891l0,-0.071l-0.887,0l0,2.558l0.887,0c0.063,-0.181,0.141,-1.354,0.141,-1.556C-73.595,12.586,-73.649,12.095,-73.733,11.891z"/>
         <g transform="matrix(2.57889e-06, 1, -1, 2.57889e-06, -59.8152, 88.5378)">
          <rect  x="-74.191" height="0.887" y="13.918" enable-background="new    " width="0.029" opacity="0.15"/>
         </g>
         <g transform="matrix(2.57889e-06, 1, -1, 2.57889e-06, -62.3411, 86.0109)">
          <rect  x="-74.192" height="0.888" fill="#FFFFFF" y="11.391" enable-background="new    " width="0.031" opacity="0.5"/>
         </g>
         <path  fill="#D1C690" d="M-68.949,14.378l-0.888,0"/>
         <g transform="matrix(2.57889e-06, 1, -1, 2.57889e-06, -55.0325, 83.7541)">
          <rect  x="-69.409" height="0.889" y="13.916" enable-background="new    " width="0.03" opacity="0.15"/>
         </g>
         <g transform="matrix(2.57889e-06, 1, -1, 2.57889e-06, -57.5598, 81.2258)">
          <rect  x="-69.409" height="0.888" fill="#FFFFFF" y="11.389" enable-background="new    " width="0.031" opacity="0.5"/>
         </g>
         <line  fill="none" x1="-74.077" y2="14.377" y1="14.377" x2="-74.077"/>
        </g>
       </g>
      </g>
     </g>
    </g>
   </g>
   <rect  x="0.015" height="0.116" y="5.566" enable-background="new    " width="2.542" opacity="0.1"/>
   <rect  x="0.015" height="0.114" fill="#FFFFFF" y="0" enable-background="new    " width="2.542" opacity="0.2"/>
  </g>
 </g>
 <g transform="matrix(1, 0, 0, 1, 6.84996, 22.7107)">
  <g  id="eia3216">
   <g transform="matrix(0, 1, -1, 0, 9.7915, -3.5475)">
    <g >
     <g transform="matrix(2.57889e-06, 1, -1, 2.57889e-06, 9.7922, -3.5469)">
      <rect  x="3.548" height="13.339" fill="#333333" y="-3.547" width="6.243"/>
     </g>
     <path  fill="#CCCCCC" d="M2.086,0.022L0,0.022L0,6.24l2.086,0L2.086,0.022z"/>
     <path  fill="#D1C690" d="M13.341,6.244l-2.088,0"/>
     <line  fill="none" x1="1.276" y2="6.24" y1="6.24" x2="1.276"/>
     <g transform="matrix(2.57889e-06, 1, -1, 2.57889e-06, 12.8338, -0.5073)">
      <rect  x="6.608" height="13.341" y="-0.507" enable-background="new    " width="0.125" opacity="0.1"/>
     </g>
     <g transform="matrix(2.57889e-06, 1, -1, 2.57889e-06, 6.7532, -6.5849)">
      <rect  x="6.607" height="13.338" fill="#FFFFFF" y="-6.585" enable-background="new    " width="0.125" opacity="0.2"/>
     </g>
     <g >
      <g transform="matrix(1, 0, 0, 1, 3.6915, 4.3908)">
       <text  font-family="'OCRA'" fill="#CCCCCC" font-size="2.6726">C106</text>
      </g>
     </g>
    </g>
   </g>
  </g>
 </g>
 <g transform="matrix(1, 0, 0, 1, 29.8899, 22.7107)">
  <g  id="eia3216_1_">
   <g transform="matrix(0, 1, -1, 0, 9.7915, -3.5475)">
    <g >
     <g transform="matrix(2.57889e-06, 1, -1, 2.57889e-06, 9.7922, -3.5469)">
      <rect  x="3.548" height="13.339" fill="#333333" y="-3.547" width="6.243"/>
     </g>
     <path  fill="#CCCCCC" d="M2.086,0.023L0,0.023L0,6.24l2.086,0L2.086,0.023z"/>
     <path  fill="#D1C690" d="M13.341,6.244l-2.088,0"/>
     <line  fill="none" x1="1.276" y2="6.24" y1="6.24" x2="1.276"/>
     <g transform="matrix(2.57889e-06, 1, -1, 2.57889e-06, 12.8332, -0.5069)">
      <rect  x="6.608" height="13.342" y="-0.508" enable-background="new    " width="0.125" opacity="0.1"/>
     </g>
     <g transform="matrix(2.57889e-06, 1, -1, 2.57889e-06, 6.7531, -6.585)">
      <rect  x="6.607" height="13.338" fill="#FFFFFF" y="-6.585" enable-background="new    " width="0.125" opacity="0.2"/>
     </g>
     <g >
      <g transform="matrix(1, 0, 0, 1, 3.6915, 4.3917)">
       <text  font-family="'OCRA'" fill="#CCCCCC" font-size="2.6726">C106</text>
      </g>
     </g>
    </g>
   </g>
  </g>
 </g>
 <g transform="matrix(1, 0, 0, 1, 37.1205, 82.7431)">
  <g  id="led-0603">
   <g transform="matrix(-1, 0, 0, -1, 2.535, 6.542)">
    <g >
     <g transform="matrix(1, 0, 0, 1, 21.5539, 31.3385)">
      <g  id="led-0603_1_">
       <g transform="matrix(0, -1, 1, 0, 1.7065, 4.8135)">
        <g >
         <g >
          <g >
           <g transform="matrix(2.57889e-06, 1, -1, 2.57889e-06, 11.4431, -54.295)">
            <rect  x="32.17" height="6.422" fill="#DCDCDC" y="-24.637" width="1.398"/>
           </g>
           <line  fill="none" x1="29.659" y2="-20.764" y1="-20.764" x2="36.081"/>
          </g>
          <g >
           <g transform="matrix(2.57889e-06, 1, -1, 2.57889e-06, 10.8694, -54.8677)">
            <rect  x="31.63" height="4.505" fill="#F2F2F2" y="-24.252" width="2.477"/>
           </g>
           <path  fill-opacity="0.7" fill="#22B573" d="M34.408,-20.762c0,0,-0.168,-0.467,0.052,-0.426c0.218,0.041,0.54,-0.148,0.676,0l-0.015,0.424L34.408,-20.762z"/>
           <g >
            <g >
             <g transform="matrix(2.57889e-06, 1, -1, 2.57889e-06, 10.8044, -54.9337)">
              <rect  x="32.389" height="0.854" fill="#FFFFFF" y="-22.491" width="0.961"/>
             </g>
             <g transform="matrix(2.57889e-06, 1, -1, 2.57889e-06, 11.2859, -54.4512)">
              <rect  x="32.844" height="0.854" fill="#B3B3B3" y="-22.01" width="0.05"/>
             </g>
            </g>
            <g >
             <polygon  fill="#D1C690" points="34.172,-21.186,35.135,-21.082,35.135,-21.813,34.172,-21.709"/>
             <g >
              <path  fill="#D1C690" d="M34.46,-21.385c-0.002,0,-0.005,0,-0.007,0c-0.269,-0.035,-0.449,-0.105,-0.598,-0.162c-0.209,-0.08,-0.361,-0.141,-0.635,-0.055c-0.025,0.012,-0.059,-0.011,-0.064,-0.043c-0.008,-0.035,0.009,-0.068,0.039,-0.078c0.303,-0.094,0.478,-0.025,0.695,0.059c0.148,0.061,0.318,0.123,0.572,0.156c0.03,0.004,0.054,0.033,0.049,0.068C34.511,-21.409,34.487,-21.385,34.46,-21.385z"/>
             </g>
             <polygon  fill="#D1C690" points="31.567,-22.715,30.602,-22.819,30.602,-22.088,31.567,-22.192"/>
             <g >
              <path  fill="#D1C690" d="M32.827,-21.911c-0.025,0,-0.049,-0.02,-0.055,-0.047c-0.063,-0.291,-0.949,-0.42,-1.492,-0.436c-0.033,0,-0.059,-0.027,-0.059,-0.063c0.002,-0.035,0.025,-0.063,0.059,-0.063l0.002,0c0.15,0.004,1.498,0.053,1.6,0.527c0.007,0.035,-0.012,0.068,-0.042,0.078C32.836,-21.911,32.832,-21.911,32.827,-21.911z"/>
             </g>
             <path  fill="#D1C690" d="M33.297,-21.895c0,0,-0.354,-0.002,-0.382,0.311c0.071,0,0.382,0,0.382,0L33.297,-21.895z"/>
             <path  fill="#D1C690" d="M32.863,-22.213c0,0,0.158,0.305,0.052,0.351c-0.107,0.048,-0.178,0.052,-0.24,-0.028C32.614,-21.975,32.863,-22.213,32.863,-22.213z"/>
             <path  fill="#9D956C" d="M33.222,-21.545c0.271,-0.084,0.425,-0.023,0.634,0.055c0.146,0.061,0.329,0.128,0.598,0.162l0.001,-0.057c-0.269,-0.035,-0.449,-0.105,-0.598,-0.162c-0.209,-0.08,-0.361,-0.141,-0.635,-0.055L33.222,-21.545z"/>
             <polygon  fill="#9D956C" points="31.567,-22.137,30.602,-22.034,30.602,-22.088,31.567,-22.192"/>
             <path  fill="#9D956C" d="M32.77,-21.901c-0.063,-0.291,-0.947,-0.421,-1.492,-0.436l0,-0.059c0.545,0.016,1.434,0.145,1.494,0.436L32.77,-21.901z"/>
             <path  fill="#9D956C" d="M32.914,-21.527c0.071,0,0.382,0,0.382,0l0,-0.059c0,0,-0.311,0,-0.382,0L32.914,-21.527z"/>
             <path  fill="#9D956C" d="M32.674,-21.838c0.063,0.08,0.131,0.076,0.239,0.031l0.001,-0.061c-0.107,0.051,-0.178,0.053,-0.24,-0.027L32.674,-21.838z"/>
            </g>
           </g>
           <g transform="matrix(2.57889e-06, 1, -1, 2.57889e-06, 9.6574, -56.0797)">
            <rect  x="32.842" height="3.462" fill="#FFFFFF" y="-24.942" enable-background="new    " width="0.053" opacity="0.5"/>
           </g>
           <g  opacity="0.25">
            <path  fill="#FFFFFF" d="M32.329,-22.489c0,-0.049,0.035,-0.088,0.076,-0.088l0.326,0c0.043,0,0.076,-0.039,0.076,-0.086l0,-0.032c0,0.05,-0.033,0.089,-0.076,0.089l-0.326,0c-0.043,0,-0.078,0.039,-0.078,0.086L32.329,-22.489L32.329,-22.489z"/>
            <path  fill="#FFFFFF" d="M34.319,-22.817c0,-0.051,-0.036,-0.089,-0.077,-0.089l-1.356,0c-0.043,0,-0.076,0.038,-0.076,0.089l0,-0.033c0,-0.049,0.032,-0.088,0.076,-0.088l1.356,0c0.041,0,0.077,0.039,0.077,0.088L34.319,-22.817z"/>
            <path  fill="#FFFFFF" d="M34.6,-21.344l-0.207,0c-0.041,0,-0.073,-0.039,-0.073,-0.088l0,-0.031c0,0.047,0.032,0.086,0.073,0.086l0.206,0L34.6,-21.344L34.6,-21.344z"/>
            <path  fill="#FFFFFF" d="M31.137,-22.905l1.029,0c0.041,0,0.078,0.039,0.078,0.09l0,-0.033c0,-0.049,-0.035,-0.088,-0.078,-0.088l-1.029,0L31.137,-22.905z"/>
           </g>
           <g >
            <path  fill="#F2F2F2" d="M30.618,-23.237l0,2.476l4.505,0l0,-2.476L30.618,-23.237z" enable-background="new    " opacity="0.5"/>
            <path  fill="#FFFFFF" d="M30.669,-22.584l0,-0.27c0.016,-0.152,-0.012,-0.271,0.096,-0.271c0.613,0,3.944,0,4.098,0c0.167,0,0.175,0.066,-0.014,0.066c-0.131,0,-3.133,0,-3.586,0c-0.457,0,-0.518,0.104,-0.518,0.196l0.002,0.272C30.747,-22.411,30.669,-22.411,30.669,-22.584z" enable-background="new    " opacity="0.55"/>
            <path  d="M35.073,-20.983c0,0.066,0.012,0.137,-0.099,0.137c-0.61,0,-3.942,0,-4.095,0c-0.168,0,-0.176,-0.066,0.008,-0.066c0.137,0,3.139,-0.002,3.593,-0.002C35.073,-20.914,35.073,-20.983,35.073,-20.983z" enable-background="new    " opacity="0.03"/>
           </g>
          </g>
          <g >
           <path  fill="#D1C690" d="M29.661,-20.762l0.77,0l0,-0.521c0,-0.125,0.082,-0.213,0.188,-0.268l0,-1.688L29.61,-23.239l0,2.427l0,0.049"/>
           <g transform="matrix(2.57889e-06, 1, -1, 2.57889e-06, 6.9011, -53.3253)">
            <rect  x="30.088" height="1.006" fill="#FFFFFF" y="-23.715" enable-background="new    " width="0.051" opacity="0.5"/>
           </g>
          </g>
          <g >
           <path  fill="#D1C690" d="M36.13,-20.762l0,-0.049l0,-2.427l-1.009,0l0,2.104c0.104,0.055,0.188,0.146,0.188,0.271l0,0.099l0.771,0"/>
           <g transform="matrix(2.57889e-06, 1, -1, 2.57889e-06, 12.4143, -58.8365)">
            <rect  x="35.599" height="1.009" fill="#FFFFFF" y="-23.715" enable-background="new    " width="0.053" opacity="0.5"/>
           </g>
          </g>
         </g>
        </g>
       </g>
      </g>
     </g>
    </g>
   </g>
  </g>
 </g>
 <g transform="matrix(1, 0, 0, 1, 23.5464, 29.621)">
  <g  id="led-0603_3_">
   <g transform="matrix(0, -1, 1, 0, -2.0035, 4.5385)">
    <g >
     <g transform="matrix(1, 0, 0, 1, 21.5539, 31.3385)">
      <g  id="led-0603_2_">
       <g transform="matrix(0, -1, 1, 0, 1.7065, 4.8135)">
        <g >
         <g >
          <g >
           <rect  x="29.659" height="1.399" fill="#DCDCDC" y="-22.126" width="6.422"/>
           <line  fill="none" x1="29.659" y2="-20.764" y1="-20.764" x2="36.081"/>
          </g>
          <g >
           <rect  x="30.616" height="2.475" fill="#F2F2F2" y="-23.237" width="4.505"/>
           <path  fill-opacity="0.7" fill="#22B573" d="M34.408,-20.762c0,0,-0.168,-0.467,0.052,-0.426c0.218,0.041,0.54,-0.146,0.676,0l-0.015,0.424L34.408,-20.762z"/>
           <g >
            <g >
             <rect  x="32.441" height="0.962" fill="#FFFFFF" y="-22.544" width="0.854"/>
             <rect  x="32.442" height="0.05" fill="#B3B3B3" y="-21.608" width="0.854"/>
            </g>
            <g >
             <polygon  fill="#D1C690" points="34.172,-21.186,35.135,-21.082,35.135,-21.813,34.172,-21.709"/>
             <g >
              <path  fill="#D1C690" d="M34.46,-21.385c-0.002,0,-0.005,0,-0.007,0c-0.267,-0.033,-0.449,-0.104,-0.598,-0.162c-0.209,-0.078,-0.361,-0.141,-0.633,-0.055c-0.027,0.012,-0.061,-0.01,-0.066,-0.043c-0.008,-0.035,0.009,-0.068,0.039,-0.078c0.303,-0.094,0.478,-0.023,0.697,0.061c0.146,0.059,0.316,0.123,0.57,0.154c0.03,0.004,0.056,0.033,0.05,0.068C34.511,-21.409,34.487,-21.385,34.46,-21.385z"/>
             </g>
             <polygon  fill="#D1C690" points="31.567,-22.715,30.602,-22.819,30.602,-22.088,31.567,-22.192"/>
             <g >
              <path  fill="#D1C690" d="M32.827,-21.911c-0.025,0,-0.049,-0.021,-0.055,-0.047c-0.063,-0.291,-0.949,-0.42,-1.492,-0.438c-0.033,0,-0.057,-0.027,-0.057,-0.063c0.002,-0.035,0.023,-0.063,0.057,-0.063l0.002,0c0.152,0.004,1.498,0.053,1.6,0.529c0.009,0.035,-0.012,0.066,-0.042,0.078C32.836,-21.911,32.832,-21.911,32.827,-21.911z"/>
             </g>
             <path  fill="#D1C690" d="M33.297,-21.895c0,0,-0.354,-0.002,-0.382,0.313c0.071,0,0.382,0,0.382,0L33.297,-21.895z"/>
             <path  fill="#D1C690" d="M32.863,-22.213c0,0,0.158,0.307,0.052,0.352c-0.105,0.047,-0.178,0.051,-0.24,-0.029C32.614,-21.975,32.863,-22.213,32.863,-22.213z"/>
             <path  fill="#9D956C" d="M33.222,-21.544c0.271,-0.086,0.423,-0.025,0.632,0.055c0.146,0.059,0.331,0.127,0.598,0.162l0.001,-0.059c-0.267,-0.033,-0.449,-0.104,-0.598,-0.162c-0.209,-0.078,-0.361,-0.141,-0.633,-0.055L33.222,-21.544z"/>
             <polygon  fill="#9D956C" points="31.567,-22.137,30.602,-22.034,30.602,-22.088,31.567,-22.192"/>
             <path  fill="#9D956C" d="M32.77,-21.901c-0.063,-0.291,-0.947,-0.42,-1.492,-0.434l0,-0.061c0.545,0.018,1.434,0.146,1.494,0.438L32.77,-21.901z"/>
             <path  fill="#9D956C" d="M32.914,-21.528c0.071,0,0.382,0,0.382,0l0,-0.057c0,0,-0.311,0,-0.382,0L32.914,-21.528z"/>
             <path  fill="#9D956C" d="M32.674,-21.838c0.063,0.08,0.133,0.076,0.239,0.031l0.001,-0.059c-0.105,0.049,-0.178,0.051,-0.24,-0.029L32.674,-21.838z"/>
            </g>
           </g>
           <rect  x="31.138" height="0.051" fill="#FFFFFF" y="-23.237" enable-background="new    " width="3.463" opacity="0.5"/>
           <g  opacity="0.25">
            <path  fill="#FFFFFF" d="M32.329,-22.489c0,-0.049,0.035,-0.088,0.076,-0.088l0.326,0c0.043,0,0.078,-0.039,0.078,-0.086l0,-0.033c0,0.049,-0.035,0.088,-0.078,0.088l-0.326,0c-0.043,0,-0.078,0.039,-0.078,0.086L32.329,-22.489L32.329,-22.489z"/>
            <path  fill="#FFFFFF" d="M34.319,-22.817c0,-0.049,-0.036,-0.088,-0.077,-0.088l-1.356,0c-0.043,0,-0.074,0.039,-0.074,0.088l0,-0.033c0,-0.049,0.03,-0.088,0.074,-0.088l1.356,0c0.041,0,0.077,0.039,0.077,0.088L34.319,-22.817z"/>
            <path  fill="#FFFFFF" d="M34.6,-21.344l-0.207,0c-0.041,0,-0.075,-0.039,-0.075,-0.088l0,-0.031c0,0.049,0.034,0.088,0.075,0.088l0.206,0L34.6,-21.344L34.6,-21.344z"/>
            <path  fill="#FFFFFF" d="M31.138,-22.905l1.028,0c0.041,0,0.078,0.039,0.078,0.088l0,-0.033c0,-0.049,-0.035,-0.088,-0.078,-0.088l-1.028,0L31.138,-22.905z"/>
           </g>
           <g >
            <path  fill="#F2F2F2" d="M30.618,-23.237l0,2.475l4.505,0l0,-2.475L30.618,-23.237z" enable-background="new    " opacity="0.5"/>
            <path  fill="#FFFFFF" d="M30.669,-22.584l0,-0.271c0.018,-0.152,-0.012,-0.27,0.098,-0.27c0.611,0,3.942,0,4.096,0c0.167,0,0.175,0.064,-0.012,0.064c-0.133,0,-3.135,0,-3.586,0c-0.457,0,-0.52,0.105,-0.52,0.197l0.002,0.271C30.747,-22.411,30.669,-22.411,30.669,-22.584z" enable-background="new    " opacity="0.55"/>
            <path  d="M35.073,-20.983c0,0.068,0.012,0.137,-0.097,0.137c-0.612,0,-3.944,0,-4.097,0c-0.168,0,-0.176,-0.064,0.01,-0.064c0.135,0,3.137,-0.002,3.591,-0.002C35.073,-20.914,35.073,-20.983,35.073,-20.983z" enable-background="new    " opacity="0.03"/>
           </g>
          </g>
          <g >
           <path  fill="#D1C690" d="M29.661,-20.762l0.771,0l0,-0.52c0,-0.125,0.082,-0.213,0.188,-0.27l0,-1.688l-1.01,0l0,2.426l0,0.049"/>
           <rect  x="29.61" height="0.051" fill="#FFFFFF" y="-23.237" enable-background="new    " width="1.006" opacity="0.5"/>
          </g>
          <g >
           <path  fill="#D1C690" d="M36.13,-20.762l0,-0.049l0,-2.426l-1.009,0l0,2.104c0.105,0.057,0.19,0.146,0.19,0.271l0,0.098l0.769,0"/>
           <rect  x="35.121" height="0.051" fill="#FFFFFF" y="-23.237" enable-background="new    " width="1.009" opacity="0.5"/>
          </g>
         </g>
        </g>
       </g>
      </g>
     </g>
    </g>
   </g>
  </g>
 </g>
 <g transform="matrix(1, 0, 0, 1, 11.8305, 81.8194)">
  <g  id="_x30_402-res">
   <g transform="matrix(1, 0, 0, 1, 10.275, 83.3789)">
    <g  id="_x30_402-res_1_">
     <g transform="matrix(0, 1, -1, 0, 4.1105, -1.5595)">
      <g >
       <g >
        <g >
         <g transform="matrix(2.57889e-06, 1, -1, 2.57889e-06, -65.8767, 92.0896)">
          <rect  x="-80.263" height="5.67" fill="#333333" y="10.271" width="2.56"/>
         </g>
         <g transform="matrix(2.57889e-06, 1, -1, 2.57889e-06, -64.6106, 93.3577)">
          <rect  x="-78.995" height="5.67" y="11.539" enable-background="new    " width="0.021" opacity="0.2"/>
         </g>
        </g>
        <g >
         <path  fill="#CCCCCC" d="M-76.971,11.827L-76.971,11.827L-76.971,11.827l-0.065,0l0,0c-0.061,0.173,-0.102,0.813,-0.102,1.002c0,0.199,0.034,1.382,0.102,1.559l0.888,0l0,-2.561L-76.971,11.827z"/>
         <path  fill="#CCCCCC" d="M-80.933,11.898l0,-0.071l-0.887,0l0,2.56l0.887,0c0.063,-0.183,0.117,-1.078,0.117,-1.279C-80.815,12.87,-80.849,12.103,-80.933,11.898z"/>
         <g transform="matrix(2.57889e-06, 1, -1, 2.57889e-06, -67.0066, 95.7459)">
          <rect  x="-81.391" height="0.888" y="13.926" enable-background="new    " width="0.029" opacity="0.15"/>
         </g>
         <g transform="matrix(2.57889e-06, 1, -1, 2.57889e-06, -69.5334, 93.219)">
          <rect  x="-81.391" height="0.888" fill="#FFFFFF" y="11.399" enable-background="new    " width="0.03" opacity="0.5"/>
         </g>
         <g transform="matrix(2.57889e-06, 1, -1, 2.57889e-06, -62.2239, 90.9622)">
          <rect  x="-76.608" height="0.888" y="13.925" enable-background="new    " width="0.03" opacity="0.15"/>
         </g>
         <g transform="matrix(2.57889e-06, 1, -1, 2.57889e-06, -64.7502, 88.4339)">
          <rect  x="-76.607" height="0.888" fill="#FFFFFF" y="11.398" enable-background="new    " width="0.03" opacity="0.5"/>
         </g>
         <line  fill="none" x1="-81.277" y2="14.385" y1="14.385" x2="-81.277"/>
        </g>
       </g>
      </g>
     </g>
    </g>
   </g>
   <rect  x="0.016" height="0.116" y="5.566" enable-background="new    " width="2.542" opacity="0.1"/>
   <rect  x="0.016" height="0.116" fill="#FFFFFF" y="0" enable-background="new    " width="2.542" opacity="0.2"/>
  </g>
 </g>
 <g transform="matrix(1, 0, 0, 1, 37.0185, 76.2386)">
  <g  id="_x30_402-res_3_">
   <g transform="matrix(1, 0, 0, 1, 10.275, 83.3789)">
    <g  id="_x30_402-res_2_">
     <g transform="matrix(0, 1, -1, 0, 4.1105, -1.5595)">
      <g >
       <g >
        <g >
         <g transform="matrix(2.57889e-06, 1, -1, 2.57889e-06, -65.8769, 92.0899)">
          <rect  x="-80.263" height="5.67" fill="#333333" y="10.271" width="2.559"/>
         </g>
         <g transform="matrix(2.57889e-06, 1, -1, 2.57889e-06, -64.6103, 93.3584)">
          <rect  x="-78.995" height="5.67" y="11.539" enable-background="new    " width="0.021" opacity="0.2"/>
         </g>
        </g>
        <g >
         <path  fill="#CCCCCC" d="M-76.97,11.827L-76.97,11.827L-76.97,11.827l-0.066,0l0,0c-0.06,0.171,-0.101,0.812,-0.101,1.002c0,0.199,0.034,1.38,0.101,1.557l0.889,0l0,-2.559L-76.97,11.827z"/>
         <path  fill="#CCCCCC" d="M-80.933,11.898l0,-0.071l-0.889,0l0,2.558l0.889,0c0.063,-0.181,0.117,-1.078,0.117,-1.277C-80.816,12.87,-80.849,12.103,-80.933,11.898z"/>
         <g transform="matrix(2.57889e-06, 1, -1, 2.57889e-06, -67.0063, 95.7456)">
          <rect  x="-81.391" height="0.887" y="13.926" enable-background="new    " width="0.03" opacity="0.15"/>
         </g>
         <g transform="matrix(2.57889e-06, 1, -1, 2.57889e-06, -69.5341, 93.2178)">
          <rect  x="-81.391" height="0.889" fill="#FFFFFF" y="11.397" enable-background="new    " width="0.029" opacity="0.5"/>
         </g>
         <g transform="matrix(2.57889e-06, 1, -1, 2.57889e-06, -62.2241, 90.9624)">
          <rect  x="-76.608" height="0.888" y="13.925" enable-background="new    " width="0.029" opacity="0.15"/>
         </g>
         <g transform="matrix(2.57889e-06, 1, -1, 2.57889e-06, -64.7505, 88.4341)">
          <rect  x="-76.607" height="0.888" fill="#FFFFFF" y="11.398" enable-background="new    " width="0.029" opacity="0.5"/>
         </g>
         <line  fill="none" x1="-81.277" y2="14.385" y1="14.385" x2="-81.277"/>
        </g>
       </g>
      </g>
     </g>
    </g>
   </g>
   <rect  x="0.016" height="0.114" y="5.566" enable-background="new    " width="2.542" opacity="0.1"/>
   <rect  x="0.016" height="0.116" fill="#FFFFFF" y="0" enable-background="new    " width="2.542" opacity="0.2"/>
  </g>
 </g>
 <g transform="matrix(1, 0, 0, 1, 24.0468, 15.079)">
  <g  id="_x30_402-res_5_">
   <g transform="matrix(0, 1, -1, 0, 4.1145, 1.5555)">
    <g >
     <g transform="matrix(1, 0, 0, 1, 10.275, 83.3789)">
      <g  id="_x30_402-res_4_">
       <g transform="matrix(0, 1, -1, 0, 4.1105, -1.5595)">
        <g >
         <g >
          <g >
           <rect  x="-81.82" height="2.56" fill="#333333" y="11.826" width="5.671"/>
           <rect  x="-81.819" height="0.021" y="14.364" enable-background="new    " width="5.67" opacity="0.2"/>
          </g>
          <g >
           <path  fill="#CCCCCC" d="M-76.97,11.827L-76.97,11.827L-76.97,11.827l-0.064,0l0,0c-0.062,0.171,-0.103,0.812,-0.103,1.002c0,0.199,0.035,1.38,0.103,1.557l0.888,0l0,-2.559L-76.97,11.827z"/>
           <path  fill="#CCCCCC" d="M-80.933,11.898l0,-0.069l-0.887,0l0,2.558l0.887,0c0.063,-0.181,0.117,-1.078,0.117,-1.279C-80.816,12.87,-80.849,12.103,-80.933,11.898z"/>
           <rect  x="-81.82" height="0.03" y="14.355" enable-background="new    " width="0.887" opacity="0.15"/>
           <rect  x="-81.82" height="0.029" fill="#FFFFFF" y="11.827" enable-background="new    " width="0.887" opacity="0.5"/>
           <rect  x="-77.037" height="0.03" y="14.354" enable-background="new    " width="0.888" opacity="0.15"/>
           <rect  x="-77.037" height="0.029" fill="#FFFFFF" y="11.826" enable-background="new    " width="0.889" opacity="0.5"/>
           <line  fill="none" x1="-81.277" y2="14.385" y1="14.385" x2="-81.277"/>
          </g>
         </g>
        </g>
       </g>
      </g>
     </g>
     <g transform="matrix(2.57889e-06, 1, -1, 2.57889e-06, 6.9111, 4.3368)">
      <rect  x="1.229" height="2.542" y="4.353" enable-background="new    " width="0.116" opacity="0.1"/>
     </g>
     <g transform="matrix(2.57889e-06, 1, -1, 2.57889e-06, 1.3456, -1.2286)">
      <rect  x="1.23" height="2.542" fill="#FFFFFF" y="-1.212" enable-background="new    " width="0.114" opacity="0.2"/>
     </g>
    </g>
   </g>
  </g>
 </g>
 <g transform="matrix(1, 0, 0, 1, 17.648, 78.4886)">
  <g  id="tactile_switch_smd_2_">
   <g transform="matrix(-1, 0, 0, -1, 15.104, 15.102)">
    <g >
     <g transform="matrix(1, 0, 0, 1, 17.004, 77.8536)">
      <g  id="tactile_switch_smd_1_">
       <g transform="matrix(-1, 0, 0, -1, 16.392, 16.373)">
        <g >
         <g transform="matrix(1, 0, 0, 1, 17.021, 74.628)">
          <g  id="tactile_switch_smd">
           <g transform="matrix(-1, 0, 0, -1, 16.392, 16.392)">
            <g >
             <polygon  fill="#6D6D6D" points="1.071,8.747,3.164,10.844,11.976,10.844,14.069,8.747,14.069,-0.065,11.976,-2.156,3.164,-2.156,1.071,-0.065"/>
             <rect  x="3.164" height="15.104" fill="#6D6D6D" y="-3.207" width="8.813"/>
             <rect  x="0.018" height="8.813" fill="#6D6D6D" y="-0.065" width="15.104"/>
             <polygon  fill="#7F7F7F" points="1.703,8.32,3.593,10.211,11.547,10.211,13.439,8.32,13.439,0.365,11.547,-1.525,3.593,-1.525,1.703,0.365"/>
             <polyline  stroke-width="0.2183" fill="none" points="3.802,-1.218,2.01,0.573,2.01,8.113,3.802,9.905,11.339,9.905" enable-background="new    " stroke="#FFFFFF" stroke-miterlimit="10" opacity="0.2"/>
             <polyline  stroke-width="0.2183" fill="none" points="11.341,9.905,13.133,8.114,13.133,0.574,11.341,-1.218,3.802,-1.218" enable-background="new    " stroke="#606060" stroke-miterlimit="10" opacity="0.2"/>
             <g >
              <path  fill="#BCA16A" d="M7.571,7.779c-1.894,0,-3.435,-1.541,-3.435,-3.438c0,-1.893,1.541,-3.435,3.435,-3.435s3.436,1.541,3.436,3.435C11.002,6.237,9.462,7.779,7.571,7.779z"/>
              <path  fill="#606060" d="M7.571,1.141c1.77,0,3.204,1.438,3.204,3.204c0,1.771,-1.437,3.204,-3.204,3.204c-1.77,0,-3.204,-1.435,-3.204,-3.204C4.367,2.573,5.802,1.141,7.571,1.141M7.571,0.68c-2.021,0,-3.665,1.646,-3.665,3.664c0,2.021,1.645,3.666,3.665,3.666c2.02,0,3.665,-1.645,3.665,-3.666C11.233,2.322,9.59,0.68,7.571,0.68L7.571,0.68z"/>
             </g>
             <path  stroke-width="0.4887" fill="#BCA16A" d="M9.591,6.363c-1.115,1.117,-2.929,1.117,-4.045,0c-1.115,-1.117,-1.115,-2.929,0,-4.044" enable-background="new    " stroke="#FFFFFF" stroke-miterlimit="10" opacity="0.2"/>
             <path  stroke-width="0.4887" fill="#BCA16A" d="M5.547,2.32c1.116,-1.116,2.93,-1.116,4.046,0c1.115,1.117,1.115,2.927,0,4.044" enable-background="new    " stroke="#606060" stroke-miterlimit="10" opacity="0.2"/>
            </g>
           </g>
          </g>
         </g>
        </g>
       </g>
      </g>
     </g>
    </g>
   </g>
  </g>
 </g>
 <g transform="matrix(1, 0, 0, 1, 20.1771, 20.6032)">
  <g  id="sot23-5">
   <g transform="matrix(0, 1, -1, 0, 8.26704, 0.203004)">
    <g >
     <g >
      <g transform="matrix(2.57889e-06, 1, -1, 2.57889e-06, 7.8211, -5.7603)">
       <rect  x="5.76" height="1.457" fill="#999999" y="0.302" width="2.061"/>
      </g>
      <g transform="matrix(2.57889e-06, 1, -1, 2.57889e-06, 5.0618, -3.001)">
       <rect  x="3.001" height="1.454" fill="#999999" y="0.303" width="2.061"/>
      </g>
      <g transform="matrix(2.57889e-06, 1, -1, 2.57889e-06, 2.303, -0.2413)">
       <rect  x="0.241" height="1.455" fill="#999999" y="0.303" width="2.062"/>
      </g>
      <g transform="matrix(2.57889e-06, 1, -1, 2.57889e-06, 6.8221, -6.7593)">
       <rect  x="6.759" height="1.457" fill="#FFFFFF" y="-0.697" enable-background="new    " width="0.063" opacity="0.2"/>
      </g>
      <g transform="matrix(2.57889e-06, 1, -1, 2.57889e-06, 4.0628, -4.0001)">
       <rect  x="4" height="1.454" fill="#FFFFFF" y="-0.696" enable-background="new    " width="0.063" opacity="0.2"/>
      </g>
      <g transform="matrix(2.57889e-06, 1, -1, 2.57889e-06, 1.304, -1.2403)">
       <rect  x="1.24" height="1.455" fill="#FFFFFF" y="-0.696" enable-background="new    " width="0.063" opacity="0.2"/>
      </g>
      <g transform="matrix(2.57889e-06, 1, -1, 2.57889e-06, 11.3885, 3.3266)">
       <rect  x="2.919" height="4.299" fill="#999999" y="5.208" width="2.225"/>
      </g>
      <g transform="matrix(2.57889e-06, 1, -1, 2.57889e-06, 12.4661, 4.4042)">
       <rect  x="3.998" height="4.299" fill="#FFFFFF" y="6.286" enable-background="new    " width="0.065" opacity="0.2"/>
      </g>
      <g transform="matrix(2.57889e-06, 1, -1, 2.57889e-06, 8.1858, 0.121)">
       <rect  x="1.94" height="8.063" fill="#303030" y="0.122" width="4.186"/>
      </g>
      <polygon  fill="#1F1F1F" points="8.064,6.245,0,6.245,0.302,5.943,7.76,5.943"/>
      <polygon  fill="#1F1F1F" points="8.064,2.061,0,2.061,0.302,2.365,7.76,2.365"/>
      <polygon  points="8.064,6.245,8.064,2.061,7.76,2.365,7.76,5.943"/>
      <polygon  fill="#3D3D3D" points="0,6.245,0,2.061,0.302,2.365,0.302,5.943"/>
      <circle  cx="7.154" fill="#1F1F1F" r="0.303" cy="2.971"/>
     </g>
    </g>
   </g>
  </g>
 </g>
</g>
</g></g></g><g partID='117040'><g transform='translate(56.913,0)' ><g xmlns="http://www.w3.org/2000/svg" id="breadboard">
 <polygon xmlns="http://www.w3.org/2000/svg" fill="#8C8C8C" points="0,2.369,23.615,2.369,23.615,4.757,0,4.757" id="wefwf"/>
 <path xmlns="http://www.w3.org/2000/svg" fill="#474747" d="M4.46929,7.111c-0.789462,0,-0.811419,-0.271,-0.811419,-0.625L3.65788,2.669c-0.00199611,-0.349,0.257498,-0.63,1.04696,-0.63l14.365,0c0.797447,0,1.06093,0.283,1.06093,0.645L20.1308,6.49c0.00598834,0.354,-0.270473,0.622,-1.06093,0.622L4.46929,7.111L4.46929,7.111z" id="path21_8_"/>
 <path xmlns="http://www.w3.org/2000/svg" fill="#666666" d="M4.46929,6.021c-0.789462,0,-0.811419,-0.281,-0.811419,-0.624L3.65788,0.641c-0.000998056,-0.345,0.258496,-0.625,1.04796,-0.625l14.364,0c0.799443,0,1.06093,0.283,1.06093,0.624l0,4.756c0.00598834,0.344,-0.270473,0.622,-1.06093,0.622L4.46929,6.021L4.46929,6.021z" id="path21_7_"/>
 <g xmlns="http://www.w3.org/2000/svg">
  <ellipse xmlns="http://www.w3.org/2000/svg" cx="5.35657" ry="0.487" rx="0.644744" cy="3.011"/>
  <ellipse xmlns="http://www.w3.org/2000/svg" cx="18.3812" ry="0.487" rx="0.643746" cy="3.011"/>
 </g>
 <path xmlns="http://www.w3.org/2000/svg" stroke-width="0.399222" fill="none" d="M16.6556,1.765l0,2.881c0.00199611,0.256,-0.257498,0.572,-0.842359,0.572L7.9575,5.218c-0.586857,0,-0.829384,-0.314,-0.831381,-0.572L7.12612,1.765" id="path21_10_" stroke="#333333"/>
 <path xmlns="http://www.w3.org/2000/svg" fill="#C4C4C4" d="M8.11419,5.085c-0.592845,0,-0.830383,-0.211,-0.833377,-0.479L7.28082,1.633c0,-0.254,0.193623,-0.468,0.78048,-0.468l7.66307,0c0.590849,0,0.783474,0.229,0.78547,0.479l0,2.977C16.5158,4.892,16.2543,5.1,15.6655,5.1L8.11419,5.085L8.11419,5.085z" id="path21_6_"/>
 <path xmlns="http://www.w3.org/2000/svg" fill="#EDEDED" d="M8.11419,4.251c-0.592845,0,-0.830383,-0.21,-0.833377,-0.479L7.28082,1.014c0,-0.255,0.193623,-0.464,0.78048,-0.464l7.66307,0c0.590849,0,0.783474,0.209,0.78547,0.464l0,2.768c0.00399222,0.271,-0.255502,0.479,-0.844355,0.479L8.11419,4.251L8.11419,4.251z" id="path21_5_"/>
</g>
</g></g><g partID='117540'><line stroke-linecap='round' stroke='#d6d63a' x1='57.96' y1='3.6325' x2='58.0063' y2='3.66985' stroke-width='3.2' /><line stroke-linecap='round' stroke='#fff800' x1='57.96' y1='3.6325' x2='58.0063' y2='3.66985' stroke-width='1.6' /></g><g partID='117610'><line stroke-linecap='round' stroke='#d6d63a' x1='58.0063' y1='3.66985' x2='54' y2='11.9125' stroke-width='3.2' /><line stroke-linecap='round' stroke='#fff800' x1='58.0063' y1='3.66985' x2='54' y2='11.9125' stroke-width='1.6' /></g><g partID='117760'><line stroke-linecap='round' stroke='#d6d63a' x1='79.4771' y1='3.6245' x2='101.075' y2='3.66985' stroke-width='3.2' /><line stroke-linecap='round' stroke='#fff800' x1='79.4771' y1='3.6245' x2='101.075' y2='3.66985' stroke-width='1.6' /></g><g partID='117900'><line stroke-linecap='round' stroke='#d6d63a' x1='101.075' y1='61.351' x2='65.1844' y2='61.351' stroke-width='3.2' /><line stroke-linecap='round' stroke='#fff800' x1='101.075' y1='61.351' x2='65.1844' y2='61.351' stroke-width='1.6' /></g><g partID='117970'><line stroke-linecap='round' stroke='#d6d63a' x1='101.075' y1='3.66985' x2='101.075' y2='61.351' stroke-width='3.2' /><line stroke-linecap='round' stroke='#fff800' x1='101.075' y1='3.66985' x2='101.075' y2='61.351' stroke-width='1.6' /></g><g partID='117830'><line stroke-linecap='round' stroke='#d6d63a' x1='65.1844' y1='61.351' x2='61.2' y2='55.1125' stroke-width='3.2' /><line stroke-linecap='round' stroke='#fff800' x1='65.1844' y1='61.351' x2='61.2' y2='55.1125' stroke-width='1.6' /></g></svg>