<?xml version="1.0" standalone="no"?>
<!DOCTYPE svg PUBLIC "-//W3C//DTD SVG 20010904//EN"
 "http://www.w3.org/TR/2001/REC-SVG-20010904/DTD/svg10.dtd">
<svg version="1.0" xmlns="http://www.w3.org/2000/svg"
 width="460.000000pt" height="460.000000pt" viewBox="0 0 460.000000 460.000000"
 preserveAspectRatio="xMidYMid meet">
<metadata>
Created by potrace 1.11, written by Peter Selinger 2001-2013
</metadata>
<g transform="translate(0.000000,460.000000) scale(0.100000,-0.100000)"
fill="#000000" stroke="none">
<path d="M0 4160 c0 -367 2 -440 14 -440 11 0 31 50 28 71 -1 10 33 7 39 -4
11 -16 33 34 39 88 5 46 7 50 30 48 45 -4 90 7 90 22 0 10 10 15 30 15 19 0
34 7 42 20 7 11 20 20 28 20 8 0 28 7 44 15 15 8 31 13 36 10 10 -6 30 40 30
70 0 16 6 25 15 25 8 0 15 5 15 10 0 18 19 10 25 -11 4 -11 18 -24 31 -29 13
-5 24 -14 24 -20 0 -5 9 -10 21 -10 16 0 19 -4 15 -17 -6 -14 -4 -14 14 2 17
15 23 16 29 6 6 -9 15 1 30 32 12 25 29 51 37 57 7 7 14 18 14 25 0 11 29 30
35 23 16 -20 25 -57 25 -102 0 -59 15 -85 53 -88 12 -1 29 -2 37 -4 8 -1 20
-2 26 -3 6 -1 17 -14 24 -30 18 -44 97 -59 107 -20 5 18 7 18 24 -10 11 -18
27 -31 38 -31 11 0 22 -6 24 -12 3 -7 6 -3 6 8 1 20 4 21 44 12 59 -14 85 -27
90 -49 3 -10 17 -23 31 -29 15 -5 26 -17 26 -28 0 -10 9 -27 21 -38 16 -15 22
-16 29 -5 4 8 15 11 25 8 19 -8 11 -27 -11 -27 -8 0 -14 -4 -14 -10 0 -5 9
-10 19 -10 10 0 21 -7 25 -15 3 -8 12 -15 21 -15 8 0 15 -4 15 -8 0 -4 14 -13
31 -19 17 -7 28 -17 24 -22 -3 -6 1 -11 10 -11 9 0 14 4 11 8 -3 5 8 6 25 4
26 -4 29 -8 29 -43 0 -28 4 -39 15 -39 8 0 15 -4 15 -8 0 -13 50 -33 62 -26 6
4 13 1 17 -5 5 -7 53 -14 124 -18 121 -6 162 -23 60 -23 -57 -1 -58 -1 -34
-18 13 -9 33 -27 46 -39 20 -21 32 -23 123 -23 98 0 101 -1 130 -30 24 -24 39
-30 71 -30 27 0 41 -4 41 -13 0 -9 12 -11 40 -9 32 3 40 1 40 -12 0 -24 47
-39 108 -37 32 1 60 -3 69 -11 14 -11 12 -14 -20 -18 -28 -4 -35 -8 -28 -19 7
-10 26 -14 66 -12 42 1 62 -2 75 -14 23 -20 16 -45 -11 -40 -10 2 -19 0 -19
-6 0 -5 18 -9 41 -9 24 0 38 4 34 10 -3 6 1 10 9 10 9 0 16 -7 16 -15 0 -9 9
-15 21 -15 14 0 19 5 16 13 -3 8 1 14 9 14 8 0 14 -6 14 -14 0 -9 13 -13 40
-13 22 0 56 -7 76 -15 19 -8 41 -12 49 -9 8 4 18 -1 21 -10 3 -9 12 -16 19
-16 7 0 16 -6 19 -12 5 -10 7 -10 12 0 6 14 34 17 34 3 0 -5 15 -12 34 -15 43
-8 77 -43 56 -56 -13 -8 -11 -13 8 -32 19 -20 24 -21 33 -8 8 13 13 11 34 -12
21 -25 31 -28 84 -28 53 0 63 -3 90 -31 17 -17 31 -35 31 -40 0 -5 6 -9 13 -9
7 0 18 -10 25 -21 12 -19 21 -21 78 -17 35 2 59 1 53 -3 -7 -4 4 -18 26 -35
30 -23 38 -25 45 -13 8 12 12 11 23 -5 9 -13 21 -17 36 -13 18 4 21 1 21 -24
0 -21 5 -29 18 -29 12 0 13 3 5 8 -10 6 -10 12 2 28 15 19 15 19 30 0 12 -16
12 -22 2 -28 -8 -5 -7 -8 6 -8 9 0 17 7 17 15 0 16 9 19 35 9 13 -5 14 -8 3
-15 -8 -5 15 -9 57 -9 47 0 65 -3 55 -10 -11 -7 -4 -13 32 -29 25 -11 55 -18
65 -15 21 5 34 -3 49 -31 8 -14 24 -21 54 -23 31 -2 48 -10 62 -28 11 -14 30
-24 44 -24 15 0 24 -6 24 -15 0 -11 11 -15 40 -15 23 0 40 -5 40 -11 0 -8 5
-7 16 2 14 11 18 10 30 -6 8 -10 14 -22 14 -27 0 -4 24 -9 53 -10 l52 -1 -45
-7 c-43 -7 -43 -7 -10 -8 20 -1 62 -9 93 -17 32 -8 62 -15 67 -15 6 0 10 413
10 1105 l0 1105 -2300 0 -2300 0 0 -440z m1630 -560 c0 -4 -7 -10 -15 -14 -10
-4 -15 1 -15 14 0 13 5 18 15 14 8 -4 15 -10 15 -14z m370 -165 c0 -11 -11
-15 -40 -15 -29 0 -40 4 -40 15 0 11 11 15 40 15 29 0 40 -4 40 -15z m900
-284 c0 -6 -4 -13 -10 -16 -5 -3 -10 1 -10 9 0 9 5 16 10 16 6 0 10 -4 10 -9z
m64 -36 c3 -9 0 -15 -9 -15 -8 0 -15 7 -15 15 0 8 4 15 9 15 5 0 11 -7 15 -15z
m236 -100 c0 -11 -11 -15 -40 -15 -29 0 -40 4 -40 15 0 11 11 15 40 15 29 0
40 -4 40 -15z"/>
<path d="M0 2367 l0 -103 68 9 c37 4 75 9 84 10 16 1 16 3 3 24 l-15 23 250 0
c200 0 250 3 250 13 0 21 -66 47 -120 47 -27 0 -61 5 -77 11 -15 6 -86 12
-158 14 -111 3 -140 7 -199 29 -38 14 -73 26 -77 26 -5 0 -9 -46 -9 -103z"/>
<path d="M4538 2363 c7 -3 16 -2 19 1 4 3 -2 6 -13 5 -11 0 -14 -3 -6 -6z"/>
<path d="M4560 2320 c0 -5 9 -10 20 -10 11 0 20 5 20 10 0 6 -9 10 -20 10 -11
0 -20 -4 -20 -10z"/>
<path d="M3460 2290 c-21 -7 -19 -8 18 -9 23 -1 42 4 42 9 0 12 -24 12 -60 0z"/>
<path d="M4474 2282 c6 -19 2 -21 -76 -27 -46 -4 -114 -4 -153 -2 -38 3 -79 6
-90 6 -17 1 -17 3 -5 11 12 8 10 10 -11 10 -14 0 -35 -9 -47 -20 -13 -12 -35
-20 -56 -20 -19 0 -38 -4 -41 -10 -3 -5 -2 -10 3 -10 5 0 58 -7 118 -16 151
-22 179 -24 342 -28 l142 -3 0 44 c0 36 -3 43 -20 43 -11 0 -20 5 -20 10 0 6
-7 10 -16 10 -8 0 -12 -4 -9 -10 11 -19 -21 -10 -44 11 -23 22 -23 22 -17 1z"/>
<path d="M4428 2273 c6 -2 18 -2 25 0 6 3 1 5 -13 5 -14 0 -19 -2 -12 -5z"/>
<path d="M4578 2273 c7 -3 16 -2 19 1 4 3 -2 6 -13 5 -11 0 -14 -3 -6 -6z"/>
<path d="M3803 2240 c-36 -15 -27 -18 40 -18 34 1 51 3 37 5 -14 3 -29 9 -34
14 -12 11 -14 11 -43 -1z"/>
<path d="M4560 2150 c0 -5 9 -10 20 -10 11 0 20 5 20 10 0 6 -9 10 -20 10 -11
0 -20 -4 -20 -10z"/>
<path d="M4458 2123 c7 -3 16 -2 19 1 4 3 -2 6 -13 5 -11 0 -14 -3 -6 -6z"/>
<path d="M4495 2111 l-40 -6 40 -8 c67 -12 105 -9 105 8 0 16 -30 18 -105 6z"/>
<path d="M4353 2055 c20 -8 53 -12 72 -11 19 2 35 0 35 -4 0 -11 -93 -22 -168
-20 -35 1 -77 -2 -93 -5 -28 -6 -29 -8 -12 -20 17 -13 17 -14 -1 -21 -11 -4
-21 -2 -26 6 -6 9 -14 9 -36 -4 -29 -15 -28 -15 38 -16 43 0 68 -4 71 -12 4
-10 6 -10 6 0 1 7 16 12 41 12 22 0 40 5 40 10 0 7 6 7 19 0 11 -5 47 -10 80
-10 33 0 62 -4 65 -9 4 -5 -3 -7 -14 -4 -11 3 -20 0 -20 -6 0 -6 8 -11 17 -11
9 0 14 -2 12 -5 -13 -12 -251 -17 -298 -5 -54 13 -117 6 -91 -10 8 -5 27 -6
42 -3 17 3 28 1 28 -6 0 -6 -17 -11 -39 -11 -21 0 -60 -2 -87 -5 -27 -2 -41
-2 -31 1 44 14 6 20 -113 20 -71 -1 -130 -4 -130 -8 0 -4 -19 -11 -42 -16 -33
-7 -2 -9 127 -11 100 -1 171 -6 173 -11 2 -6 23 -10 47 -10 24 0 47 -4 50 -10
4 -6 -25 -10 -80 -10 -55 0 -84 -4 -80 -10 3 -5 27 -10 53 -10 26 0 53 -4 60
-8 7 -5 -72 -10 -175 -11 -291 -5 -341 -3 -443 13 -106 18 -206 21 -214 7 -9
-14 -99 -33 -153 -32 -53 0 -149 -25 -174 -46 -9 -7 -29 -11 -45 -9 -16 2 -23
1 -16 -1 8 -3 22 -13 32 -23 17 -17 36 -18 192 -17 170 1 218 -7 218 -34 0 -6
-4 -8 -10 -4 -5 3 -13 -9 -18 -27 -8 -30 -11 -33 -45 -30 -26 3 -45 -3 -63
-17 -15 -11 -31 -18 -36 -15 -5 3 -15 1 -22 -5 -15 -13 -242 -18 -269 -6 -9 4
-26 5 -38 2 -25 -7 -48 40 -27 55 30 21 84 40 116 40 l33 0 -45 24 c-55 29
-66 30 -66 4 0 -23 -15 -27 -23 -6 -5 13 -78 36 -118 36 -16 0 -20 -5 -16 -20
4 -15 0 -20 -14 -20 -10 0 -19 5 -19 10 0 6 5 10 10 10 6 0 10 5 10 11 0 7
-10 9 -27 5 -16 -4 -84 -7 -152 -7 -104 0 -126 -2 -136 -16 -15 -20 -86 -19
-159 2 -60 18 -56 18 -56 1 0 -7 -9 -16 -19 -19 -13 -3 -22 -17 -27 -43 -9
-52 -12 -56 -35 -44 -15 9 -19 7 -19 -6 0 -8 -10 -24 -22 -34 -20 -16 -26 -17
-50 -4 -16 8 -28 19 -28 24 0 15 -37 12 -44 -2 -3 -10 -8 -8 -15 4 -9 14 -26
16 -112 13 -100 -3 -169 11 -169 35 0 6 -9 10 -20 10 -11 0 -20 5 -20 10 0 6
7 10 17 10 42 0 -2 11 -63 16 -103 8 -107 9 -129 21 -12 6 -39 9 -60 6 -144
-19 -175 -19 -195 1 -15 16 -22 17 -34 7 -8 -7 -20 -10 -26 -6 -5 3 -13 0 -16
-8 -3 -9 -15 -18 -27 -21 -12 -3 -33 -21 -47 -40 -29 -40 -57 -51 -80 -32 -39
35 -228 39 -237 6 -4 -13 -3 -13 6 0 7 9 11 10 11 3 0 -22 -22 -25 -43 -5 -37
34 -177 67 -325 76 -34 3 -77 9 -95 15 -18 6 -65 17 -105 25 l-72 14 0 -189
c0 -104 3 -189 8 -189 4 0 18 -10 32 -21 l25 -20 -32 16 -33 16 0 -661 0 -660
2300 0 2300 0 0 1035 0 1035 -142 -1 c-133 0 -140 -1 -105 -14z m162 -15 c4
-6 -5 -10 -19 -10 -14 0 -26 5 -26 10 0 6 9 10 19 10 11 0 23 -4 26 -10z
m-349 -225 c-32 -17 -66 -20 -66 -6 0 13 19 19 60 20 l35 1 -29 -15z m82 -12
c-15 -2 -42 -2 -60 0 -18 2 -6 4 27 4 33 0 48 -2 33 -4z m102 -3 c0 -5 -8 -10
-17 -10 -15 0 -16 2 -3 10 19 12 20 12 20 0z m-200 -189 c0 -4 11 -6 24 -4 13
3 32 0 43 -6 16 -9 16 -11 -7 -12 -64 -5 -75 -3 -78 14 -2 9 1 17 7 17 6 0 11
-4 11 -9z m-1481 -10 c12 -8 12 -12 2 -25 -17 -20 -27 -20 -35 0 -11 29 6 42
33 25z m1451 -2 c0 -7 8 -18 18 -25 15 -12 13 -14 -23 -15 -22 -1 -45 -1 -52
0 -6 1 -14 -3 -17 -8 -3 -5 -26 -6 -51 -3 -38 4 -49 1 -65 -16 -29 -31 -28
-44 5 -49 49 -6 53 -10 51 -45 -1 -26 -6 -34 -24 -36 -21 -3 -26 -12 -23 -39
2 -14 -8 -16 -128 -32 -47 -6 -89 -15 -95 -21 -13 -13 -46 -13 -46 1 0 5 5 7
12 3 7 -4 8 -3 4 4 -12 21 -25 13 -40 -23 -15 -36 -20 -38 -73 -35 -17 1 -67
-8 -110 -19 -125 -32 -161 -36 -301 -39 -74 -2 -84 -4 -89 -21 -4 -16 -14 -20
-47 -20 -68 1 -278 -10 -330 -16 -27 -3 -62 -13 -79 -21 -16 -9 -38 -13 -49
-11 -12 3 -23 -2 -31 -14 -7 -11 -23 -19 -37 -19 -14 0 -31 -5 -38 -12 -8 -8
-15 -8 -25 1 -12 9 -16 8 -21 -4 -3 -8 -18 -15 -34 -15 -15 0 -33 -5 -39 -11
-17 -17 -67 -7 -71 15 -4 20 12 59 37 89 15 17 14 21 -8 38 -14 12 -31 17 -42
14 -11 -4 -19 -2 -19 4 0 6 -10 11 -22 11 -72 1 -45 55 31 65 93 12 203 50
243 84 14 11 15 17 7 28 -9 9 -8 13 0 13 6 0 16 11 21 24 6 16 20 27 42 31 18
4 35 10 38 14 8 11 113 41 119 34 4 -3 0 -8 -7 -10 -10 -4 -8 -9 5 -19 25 -19
47 -17 68 6 31 35 237 59 255 30 5 -8 18 -6 46 9 54 29 87 27 129 -10 34 -30
37 -31 54 -15 12 11 34 17 62 16 49 -1 118 14 158 34 19 10 32 11 45 4 10 -5
34 -7 54 -3 59 10 168 17 160 10 -5 -6 -28 -12 -51 -14 -5 -1 -7 -7 -4 -13 2
-7 21 -14 43 -15 21 -1 54 -5 72 -8 21 -5 32 -3 32 4 0 6 7 11 16 11 8 0 12 5
9 10 -3 6 3 10 14 10 11 0 23 5 26 10 3 6 23 10 43 10 35 1 135 30 149 44 10
10 23 7 23 -5z m183 -6 c-13 -2 -33 -2 -45 0 -13 2 -3 4 22 4 25 0 35 -2 23
-4z m-68 -33 c4 -6 -10 -10 -35 -10 -25 0 -39 4 -35 10 3 6 19 10 35 10 16 0
32 -4 35 -10z m-2017 -25 c3 -3 -1 -5 -9 -5 -8 0 -24 -3 -36 -6 -18 -5 -23 -2
-23 14 0 18 3 20 31 12 18 -5 34 -12 37 -15z m1914 -87 c-9 -9 -15 -9 -24 0
-9 9 -7 12 12 12 19 0 21 -3 12 -12z m-2104 -207 c16 -37 10 -52 -41 -84 -28
-19 -50 -26 -65 -22 -14 4 -21 2 -18 -4 4 -5 -9 -14 -28 -20 -20 -5 -48 -18
-63 -28 -15 -11 -44 -25 -63 -33 -19 -7 -40 -20 -47 -27 -8 -10 -36 -16 -85
-17 -40 -2 -91 -6 -113 -10 -35 -6 -46 -3 -93 28 -30 20 -57 36 -61 36 -4 0
-16 9 -27 21 -10 11 -32 27 -49 34 l-30 13 27 1 c15 1 30 -3 33 -9 3 -5 10
-10 16 -10 17 0 9 20 -8 20 -16 1 -16 2 1 15 11 8 15 15 9 15 -7 0 -15 -4 -18
-10 -3 -5 -11 -10 -16 -10 -6 0 -7 5 -4 10 8 13 -8 13 -22 -1 -6 -6 -21 -8
-33 -4 -21 7 -21 7 -3 20 11 7 36 17 57 21 22 4 57 17 80 30 49 28 50 28 70 9
15 -15 54 -18 260 -16 70 1 106 5 122 16 13 8 43 15 66 15 24 1 54 7 68 15 40
23 64 18 78 -14z m-893 -29 c-3 -3 -11 0 -18 7 -9 10 -8 11 6 5 10 -3 15 -9
12 -12z m56 -29 c13 -15 12 -15 -8 -4 -24 12 -29 21 -14 21 5 0 15 -7 22 -17z
m578 -192 c10 -7 7 -9 -12 -8 -14 1 -23 5 -20 10 6 9 15 9 32 -2z m264 -108
c-7 -2 -19 -2 -25 0 -7 3 -2 5 12 5 14 0 19 -2 13 -5z"/>
<path d="M3600 1470 c0 -5 6 -10 14 -10 8 0 18 5 21 10 3 6 -3 10 -14 10 -12
0 -21 -4 -21 -10z"/>
<path d="M3658 1473 c7 -3 16 -2 19 1 4 3 -2 6 -13 5 -11 0 -14 -3 -6 -6z"/>
<path d="M3813 1468 c2 -7 12 -13 22 -13 10 0 20 6 23 13 2 7 -6 12 -23 12
-17 0 -25 -5 -22 -12z"/>
<path d="M2667 1459 c-9 -5 -22 -7 -29 -3 -7 5 -9 2 -5 -9 7 -17 -40 -47 -75
-47 -10 0 -18 -6 -18 -14 0 -20 54 -30 82 -15 13 7 53 12 90 11 37 0 70 3 73
9 4 5 31 9 61 9 40 0 54 -4 54 -14 0 -8 -6 -16 -12 -19 -7 -2 -10 -8 -6 -12 4
-4 13 -3 20 2 19 14 174 9 192 -7 10 -8 26 -10 43 -5 16 4 48 9 73 11 85 6
115 16 149 50 19 19 38 34 43 34 4 0 8 5 8 10 0 13 -32 13 -67 -2 -15 -6 -32
-10 -38 -9 -5 2 -19 5 -29 7 -11 2 -24 8 -30 14 -23 23 -142 1 -161 -30 -8
-14 -42 -13 -47 1 -2 7 -34 13 -78 15 -63 2 -78 -1 -96 -17 -19 -18 -26 -18
-75 -8 -30 6 -62 20 -72 30 -20 22 -25 22 -50 8z"/>
<path d="M3745 1440 c3 -5 12 -7 20 -3 21 7 19 13 -6 13 -11 0 -18 -4 -14 -10z"/>
<path d="M2710 1323 c-32 -12 -39 -43 -11 -43 11 0 21 -4 23 -9 2 -5 19 -11
38 -13 30 -2 35 0 38 19 2 16 -5 26 -27 37 -32 17 -37 18 -61 9z"/>
<path d="M2525 1280 c-13 -6 -15 -9 -5 -9 8 0 22 4 30 9 18 12 2 12 -25 0z"/>
<path d="M2382 1243 c-6 -3 -10 -9 -6 -14 7 -12 44 -12 44 0 0 11 -21 19 -38
14z"/>
<path d="M2745 1170 c-3 -5 3 -10 15 -10 12 0 18 5 15 10 -3 6 -10 10 -15 10
-5 0 -12 -4 -15 -10z"/>
<path d="M1238 1153 c7 -3 16 -2 19 1 4 3 -2 6 -13 5 -11 0 -14 -3 -6 -6z"/>
<path d="M1392 1075 c2 -1 12 -7 24 -13 15 -8 21 -8 21 1 0 7 -11 13 -24 13
-14 1 -23 1 -21 -1z"/>
<path d="M1397 1049 c7 -7 15 -10 18 -7 3 3 -2 9 -12 12 -14 6 -15 5 -6 -5z"/>
<path d="M3680 1849 c0 -5 5 -7 10 -4 6 3 10 8 10 11 0 2 -4 4 -10 4 -5 0 -10
-5 -10 -11z"/>
<path d="M3848 1823 c6 -2 18 -2 25 0 6 3 1 5 -13 5 -14 0 -19 -2 -12 -5z"/>
<path d="M3720 1810 c0 -5 7 -7 15 -4 8 4 15 8 15 10 0 2 -7 4 -15 4 -8 0 -15
-4 -15 -10z"/>
<path d="M1820 1607 c-22 -9 -23 -11 -6 -14 10 -3 23 0 29 6 16 16 5 20 -23 8z"/>
</g>
</svg>
